<?xml version="1.0" encoding="UTF-8" standalone="no"?>
<!-- Created with Inkscape (http://www.inkscape.org/) -->

<svg
   version="1.1"
   id="svg1"
   width="666.66669"
   height="666.66669"
   viewBox="0 0 666.66669 666.66669"
   sodipodi:docname="signup.eps"
   xmlns:inkscape="http://www.inkscape.org/namespaces/inkscape"
   xmlns:sodipodi="http://sodipodi.sourceforge.net/DTD/sodipodi-0.dtd"
   xmlns="http://www.w3.org/2000/svg"
   xmlns:svg="http://www.w3.org/2000/svg">
  <defs
     id="defs1" />
  <sodipodi:namedview
     id="namedview1"
     pagecolor="#FFFFFFFF"
     bordercolor="#000000"
     borderopacity="0.25"
     inkscape:showpageshadow="2"
     inkscape:pageopacity="0.0"
     inkscape:pagecheckerboard="0"
     inkscape:deskcolor="#d1d1d1">
    <inkscape:page
       x="0"
       y="0"
       inkscape:label="1"
       id="page1"
       width="666.66669"
       height="666.66669"
       margin="0"
       bleed="0" />
  </sodipodi:namedview>
  <g
     id="g1"
     inkscape:groupmode="layer"
     inkscape:label="1">
    <g
       id="group-R5">
      <path
         id="path2"
         d="M 0,0 H 5000 V 5000 H 0 Z"
         style="fill:#FFFFFF23;fill-opacity:1;fill-rule:nonzero;stroke:none"
         transform="matrix(0.13333333,0,0,-0.13333333,0,666.66667)" />
      <path
         id="path3"
         d="m 2145.04,351.949 c -151.62,0 -253.37,9.422 -331.36,30.981 h 355.33 v 6.422 1240.528 c 24.5,-0.36 49.33,-0.49 71.96,-0.49 51,0 90.86,0.64 90.86,0.64 25.19,104.57 53.27,208.45 84.23,311.46 l 23.8,79.19 c 30.95,-103.01 82.83,-286.08 108.03,-390.65 0,0 39.86,-0.64 90.86,-0.64 25.5,0 53.77,0.16 81.25,0.64 82.43,1.45 186.03,11.44 186.03,11.44 4.02,277.5 -41.41,555.76 -134.71,817.17 l -1.69,-0.15 c 8.08,7.31 9.48,20.76 9.73,32.28 4.54,208.05 8.62,394.6 13.16,602.65 l 0.47,21.51 c 0,0 27.84,-89.16 38.33,-111.29 l 18.9,23.27 c 31.51,36.21 121.63,92.24 160.33,120.63 -117.65,293.04 -187.33,280.95 -252.09,293.67 0,0 -36,5.67 -92.05,12.04 -17.9,9.55 -98.25,39.84 -108.08,58.49 -6.23,11.83 -8.15,34.44 -9.81,47.71 -3.52,28.03 -7.03,56.07 -10.54,84.11 9.36,7.86 18.52,17.23 27.34,28.34 15.05,18.96 21.84,43.12 28.14,66.5 15.51,57.5 34.52,203.01 21.16,275.32 -20.62,111.69 -131.24,115.88 -147.71,115.88 -1.33,0 -2.05,-0.03 -2.05,-0.03 -207.61,0 -198.97,-202.98 -198.97,-202.98 -6.78,-77.79 5.56,-157.17 35.64,-229.22 8.73,-20.92 22.17,-39.01 38.95,-53.81 0.02,-0.09 0.11,-0.55 0.3,-1.33 -3.19,-25.41 -6.37,-50.82 -9.55,-76.23 -1.66,-13.26 -3.59,-35.88 -9.82,-47.7 -9.98,-18.94 -92.64,-49.87 -108.85,-58.92 v 0 c -13.88,-2.13 -28.64,-4.52 -43.55,-7.06 v 376.82 H 845.289 c 23.84,105.43 59.899,207.66 111.106,304.7 225.335,427.02 720.575,670.31 1203.945,670.31 10.67,0 21.28,-0.11 31.94,-0.35 493.37,-10.99 961.8,-247.09 1332.31,-573.05 370.52,-325.96 654.26,-737.89 915.7,-1156.44 103.39,-165.52 206.1,-338.66 234.22,-531.78 28.74,-197.47 -23.48,-397.94 -93.94,-584.63 -43.38,-114.93 -95.11,-229.2 -176.95,-320.81 -100.24,-112.21 -237.83,-182.22 -365.58,-261.73 -328.6,-204.5 -647.18,-648.688 -848.58,-979.188 0,0 0,0 -681.55,-33.172 -146.38,-7.121 -265.02,-11.051 -362.87,-11.051 m 11.13,43.821 H 1773.7 c -82.86,30.671 -139.17,78.878 -211.74,149.082 -95.09,91.968 -132.6,215.687 -256.78,261.277 -406.649,149.262 -711.465,544.461 -752.543,975.681 -14.383,151 5.308,314.66 102.566,431.07 62.82,75.18 153.75,125.55 206,208.44 82.039,130.14 46.781,298.5 15.164,449.06 -65.07,309.87 -99.871,640.92 -33.918,945.91 H 2156.17 v -366.18 c -17.87,-3.12 -35.65,-6.39 -52.08,-9.62 -64.76,-12.73 -134.43,-0.63 -252.09,-293.67 38.7,-28.39 128.83,-84.42 160.34,-120.64 l 18.89,-23.26 c 10.49,22.13 38.33,111.29 38.33,111.29 0,0 4.64,-184.45 9.84,-299.4 2.8,-61.9 5.6,-123.79 8.4,-185.69 2.15,-47.47 4.3,-94.94 6.45,-142.42 0.36,-7.94 2.02,-15.68 5.16,-22.99 0.94,-2.2 3.94,-4.22 8.62,-6.09 -93.06,-261.11 -138.36,-539 -134.35,-816.15 0,0 100.67,-9.71 182.49,-11.37 V 395.77 m 184.73,3247.41 c -0.06,0.06 -0.12,0.11 -0.17,0.16 0.05,-0.05 0.11,-0.1 0.17,-0.15 0,0 0,0 0,-0.01"
         style="fill:#aee3d1;fill-opacity:1;fill-rule:nonzero;stroke:none"
         transform="matrix(0.13333333,0,0,-0.13333333,0,666.66667)" />
      <path
         id="path4"
         d="m 4357.48,595.281 v 6.449 h -898.99 v 1674.62 h 892.53 V 595.281 h 6.46 v 6.449 -6.449 h 6.46 V 2289.26 H 3445.58 V 588.82 h 918.36 v 6.461 h -6.46"
         style="fill:#ffffff;fill-opacity:1;fill-rule:nonzero;stroke:none"
         transform="matrix(0.13333333,0,0,-0.13333333,0,666.66667)" />
      <path
         id="path5"
         d="m 4301.98,1904.43 v 6.45 h -785.77 v 274.8 h 779.31 v -281.25 h 6.46 v 6.45 -6.45 h 6.45 v 294.16 h -805.14 v -300.62 h 805.14 v 6.46 h -6.45"
         style="fill:#ffffff;fill-opacity:1;fill-rule:nonzero;stroke:none"
         transform="matrix(0.13333333,0,0,-0.13333333,0,666.66667)" />
      <path
         id="path6"
         d="m 3948.78,2048.28 c 0,-23.7 -19.21,-42.92 -42.92,-42.92 -23.7,0 -42.91,19.22 -42.91,42.92 0,23.7 19.21,42.92 42.91,42.92 23.71,0 42.92,-19.22 42.92,-42.92"
         style="fill:#ffffff;fill-opacity:1;fill-rule:nonzero;stroke:none"
         transform="matrix(0.13333333,0,0,-0.13333333,0,666.66667)" />
      <path
         id="path7"
         d="m 4301.98,1562.8 v 6.45 h -785.77 v 274.8 h 779.31 V 1562.8 h 6.46 v 6.45 -6.45 h 6.45 v 294.16 h -805.14 v -300.62 h 805.14 v 6.46 h -6.45"
         style="fill:#ffffff;fill-opacity:1;fill-rule:nonzero;stroke:none"
         transform="matrix(0.13333333,0,0,-0.13333333,0,666.66667)" />
      <path
         id="path8"
         d="m 3948.78,1706.65 c 0,-23.7 -19.21,-42.92 -42.92,-42.92 -23.7,0 -42.91,19.22 -42.91,42.92 0,23.7 19.21,42.92 42.91,42.92 23.71,0 42.92,-19.22 42.92,-42.92"
         style="fill:#ffffff;fill-opacity:1;fill-rule:nonzero;stroke:none"
         transform="matrix(0.13333333,0,0,-0.13333333,0,666.66667)" />
      <path
         id="path9"
         d="m 4301.98,1210.77 v 6.46 h -785.77 v 274.79 h 779.31 v -281.25 h 6.46 v 6.46 -6.46 h 6.45 v 294.17 h -805.14 v -300.62 h 805.14 v 6.45 h -6.45"
         style="fill:#ffffff;fill-opacity:1;fill-rule:nonzero;stroke:none"
         transform="matrix(0.13333333,0,0,-0.13333333,0,666.66667)" />
      <path
         id="path10"
         d="m 3948.78,1354.63 c 0,-23.71 -19.21,-42.92 -42.92,-42.92 -23.7,0 -42.91,19.21 -42.91,42.92 0,23.7 19.21,42.92 42.91,42.92 23.71,0 42.92,-19.22 42.92,-42.92"
         style="fill:#ffffff;fill-opacity:1;fill-rule:nonzero;stroke:none"
         transform="matrix(0.13333333,0,0,-0.13333333,0,666.66667)" />
      <path
         id="path11"
         d="m 4301.98,857.5 v 6.461 h -785.77 v 274.789 h 779.31 V 857.5 h 6.46 v 6.461 -6.461 h 6.45 v 294.17 H 3503.29 V 851.051 h 805.14 v 6.449 h -6.45"
         style="fill:#ffffff;fill-opacity:1;fill-rule:nonzero;stroke:none"
         transform="matrix(0.13333333,0,0,-0.13333333,0,666.66667)" />
      <path
         id="path12"
         d="m 3948.78,1001.36 c 0,-23.712 -19.21,-42.919 -42.92,-42.919 -23.7,0 -42.91,19.207 -42.91,42.919 0,23.7 19.21,42.92 42.91,42.92 23.71,0 42.92,-19.22 42.92,-42.92"
         style="fill:#ffffff;fill-opacity:1;fill-rule:nonzero;stroke:none"
         transform="matrix(0.13333333,0,0,-0.13333333,0,666.66667)" />
      <path
         id="path13"
         d="m 2162.59,389.352 v 6.418 H 490.754 V 3816.29 H 2156.17 V 389.352 h 6.42 v 6.418 -6.418 h 6.42 V 3829.14 H 477.906 V 382.93 H 2169.01 v 6.422 h -6.42"
         style="fill:#ffffff;fill-opacity:1;fill-rule:nonzero;stroke:none"
         transform="matrix(0.13333333,0,0,-0.13333333,0,666.66667)" />
      <path
         id="path14"
         d="m 1172.6,1042.73 h 14.3477 V 3732.14 H 1172.6 Z"
         style="fill:#ffffff;fill-opacity:1;fill-rule:nonzero;stroke:none"
         transform="matrix(0.13333333,0,0,-0.13333333,0,666.66667)" />
      <path
         id="path15"
         d="m 1355.83,2393.74 h -7.18 c 0,-11.93 -4.81,-22.67 -12.63,-30.5 -7.83,-7.81 -18.56,-12.63 -30.49,-12.63 -11.94,0 -22.67,4.82 -30.5,12.63 -7.82,7.83 -12.63,18.57 -12.63,30.5 0,11.93 4.81,22.66 12.63,30.49 7.83,7.82 18.56,12.63 30.5,12.63 11.93,0 22.66,-4.81 30.49,-12.63 7.82,-7.83 12.63,-18.56 12.63,-30.49 h 7.18 7.17 c -0.01,31.74 -25.73,57.47 -57.47,57.47 -31.75,0 -57.47,-25.73 -57.48,-57.47 0.01,-31.75 25.73,-57.47 57.48,-57.48 31.74,0.01 57.46,25.73 57.47,57.48 h -7.17"
         style="fill:#ffffff;fill-opacity:1;fill-rule:nonzero;stroke:none"
         transform="matrix(0.13333333,0,0,-0.13333333,0,666.66667)" />
      <path
         id="path16"
         d="m 1111.72,2393.74 h -7.18 c 0,-11.93 -4.81,-22.67 -12.63,-30.5 -7.83,-7.81 -18.56,-12.63 -30.49,-12.63 -11.94,0 -22.67,4.82 -30.5,12.63 -7.81,7.83 -12.63,18.57 -12.63,30.5 0,11.93 4.82,22.67 12.63,30.49 7.83,7.82 18.56,12.63 30.5,12.63 11.93,0 22.66,-4.81 30.49,-12.63 7.82,-7.83 12.63,-18.56 12.63,-30.49 h 7.18 7.17 c 0,31.74 -25.73,57.47 -57.47,57.47 -31.75,0 -57.47,-25.73 -57.48,-57.47 0.01,-31.75 25.73,-57.47 57.48,-57.48 31.74,0.01 57.47,25.73 57.47,57.48 h -7.17"
         style="fill:#ffffff;fill-opacity:1;fill-rule:nonzero;stroke:none"
         transform="matrix(0.13333333,0,0,-0.13333333,0,666.66667)" />
      <path
         id="path17"
         d="m 4096.2,2563.14 c 0,0 -216.46,-45.45 -404.44,0 l 146.65,310.06 h 111.62 l 146.17,-310.06"
         style="fill:#ffffff;fill-opacity:1;fill-rule:nonzero;stroke:none"
         transform="matrix(0.13333333,0,0,-0.13333333,0,666.66667)" />
      <path
         id="path18"
         d="m 3889.5,2282.9 h 14.6602 v 262.891 H 3889.5 Z"
         style="fill:#ffffff;fill-opacity:1;fill-rule:nonzero;stroke:none"
         transform="matrix(0.13333333,0,0,-0.13333333,0,666.66667)" />
      <path
         id="path19"
         d="m 4010.76,2282.9 h -233.55 v 27.17 h 233.55 v -27.17"
         style="fill:#ffffff;fill-opacity:1;fill-rule:nonzero;stroke:none"
         transform="matrix(0.13333333,0,0,-0.13333333,0,666.66667)" />
      <path
         id="path20"
         d="m 3405.73,363 c 0,-57.27 -436.28,-103.711 -974.45,-103.711 -538.18,0 -974.46,46.441 -974.46,103.711 0,57.27 436.28,103.699 974.46,103.699 538.17,0 974.45,-46.429 974.45,-103.699"
         style="fill:#e4e7e3;fill-opacity:1;fill-rule:nonzero;stroke:none"
         transform="matrix(0.13333333,0,0,-0.13333333,0,666.66667)" />
      <path
         id="path21"
         d="m 2898.64,1649.22 c -1.58,-109.36 -15.12,-227.64 -33.19,-335.52 0,0 63.7,-294.54 -2.1,-768.848 h -151.5 l -7.9,85.707 c -17.36,336.48 -70.01,678.831 -148.92,1006.381 l 343.61,12.28"
         style="fill:#f6b2a3;fill-opacity:1;fill-rule:nonzero;stroke:none"
         transform="matrix(0.13333333,0,0,-0.13333333,0,666.66667)" />
      <path
         id="path22"
         d="m 1990.76,1640.17 c 1.58,-109.36 11.35,-218.59 29.42,-326.47 0,0 -63.69,-294.54 2.1,-768.848 h 151.5 l 7.91,85.707 c 17.36,336.48 65.99,671.331 144.9,998.881 l -335.83,10.73"
         style="fill:#f6b2a3;fill-opacity:1;fill-rule:nonzero;stroke:none"
         transform="matrix(0.13333333,0,0,-0.13333333,0,666.66667)" />
      <path
         id="path23"
         d="m 2439.86,2020.68 c 30.95,-103.01 82.83,-286.08 108.03,-390.65 0,0 89.69,-1.44 172.11,0 82.43,1.45 186.03,11.44 186.03,11.44 4.02,277.5 -41.41,555.76 -134.71,817.17 l -194.77,-17.08 c -226.6,-15.5 -468.16,17.08 -468.16,17.08 -93.3,-261.41 -138.72,-539.67 -134.71,-817.17 0,0 103.6,-9.99 186.03,-11.44 82.43,-1.44 172.12,0 172.12,0 25.19,104.57 53.27,208.45 84.23,311.46 l 23.8,79.19"
         style="fill:#2a5d73;fill-opacity:1;fill-rule:nonzero;stroke:none"
         transform="matrix(0.13333333,0,0,-0.13333333,0,666.66667)" />
      <path
         id="path24"
         d="m 2863.35,544.852 c 50.55,-30.454 115.68,-67.563 159.79,-106.75 11.37,-10.09 23.49,-23.071 21.3,-38.114 -2.33,-15.968 -19.59,-25.008 -35.3,-28.656 -24.65,-5.723 -50.31,-4.633 -75.6,-3.512 -60.86,2.692 -122.99,5.649 -179.74,27.789 -12.4,4.832 -24.91,10.911 -33.19,21.332 -12.67,15.938 -12.75,38.149 -12.24,58.489 0.59,23.172 1.17,46.34 1.75,69.5"
         style="fill:#133544;fill-opacity:1;fill-rule:nonzero;stroke:none"
         transform="matrix(0.13333333,0,0,-0.13333333,0,666.66667)" />
      <path
         id="path25"
         d="m 2022.28,544.852 c -50.54,-30.454 -115.68,-67.563 -159.79,-106.75 -11.36,-10.09 -23.48,-23.071 -21.29,-38.114 2.32,-15.968 19.58,-25.008 35.29,-28.656 24.66,-5.723 50.32,-4.633 75.6,-3.512 60.86,2.692 123,5.649 179.75,27.789 12.4,4.832 24.91,10.911 33.19,21.332 12.67,15.938 12.75,38.149 12.23,58.489 -0.58,23.172 -1.16,46.34 -1.74,69.5"
         style="fill:#133544;fill-opacity:1;fill-rule:nonzero;stroke:none"
         transform="matrix(0.13333333,0,0,-0.13333333,0,666.66667)" />
      <path
         id="path26"
         d="m 3039.6,385.742 c 0,0 -5.1,-1.121 -14.4,-2.594 -9.22,-1.367 -22.48,-3.039 -38.46,-3.527 -15.96,-0.562 -34.58,-0.16 -54.42,0.828 -19.81,1.02 -40.96,2.121 -62.12,3.91 -21.13,1.891 -42.25,4.629 -61.88,8.352 -19.66,3.59 -37.66,8.598 -52.9,13.641 -7.64,2.589 -14.55,5.617 -20.31,9.039 -5.75,3.257 -10.53,7.339 -13.63,11 -3.2,3.629 -5.3,6.75 -6.7,8.898 -1.33,2.191 -2.05,3.352 -2.05,3.352 l -0.04,0.078 c -0.72,1.179 -0.35,2.73 0.84,3.461 1.19,0.718 2.74,0.351 3.46,-0.84 l 0.06,-0.11 c 0,0 2.49,-4.57 8.54,-11.07 3.02,-3.269 7,-6.449 12.57,-9.379 5.45,-2.929 12.01,-5.562 19.42,-7.949 14.93,-4.691 32.81,-9.012 52.15,-12.512 19.35,-3.578 40.24,-6.058 61.2,-7.968 20.96,-2.063 42.03,-3.461 61.79,-4.743 19.73,-1.269 38.12,-1.91 53.86,-1.578 15.74,0.289 28.82,1.141 37.93,2.239 9.03,1.07 14.3,2.011 14.3,2.011 1.25,0.231 2.45,-0.609 2.67,-1.859 0.22,-1.223 -0.57,-2.391 -1.77,-2.66 l -0.11,-0.02"
         style="fill:#2f6981;fill-opacity:1;fill-rule:nonzero;stroke:none"
         transform="matrix(0.13333333,0,0,-0.13333333,0,666.66667)" />
      <path
         id="path27"
         d="m 1846.83,390.281 c 0,0 5.16,-0.922 14,-1.972 8.92,-1.098 21.74,-1.907 37.14,-2.258 15.42,-0.352 33.43,0.23 52.75,1.437 19.34,1.231 39.99,2.621 60.52,4.543 20.55,1.809 41.02,4.16 60.01,7.43 18.97,3.348 36.53,7.211 51.28,11.609 7.36,2.172 13.94,4.43 19.52,6.91 5.53,2.481 10.23,5.25 13.46,7.801 3.29,2.668 5.58,5.27 7.09,7.028 1.47,1.832 2.25,2.8 2.25,2.8 l 0.09,0.102 c 0.87,1.09 2.45,1.258 3.53,0.391 1.06,-0.852 1.25,-2.383 0.45,-3.461 0,0 -0.8,-1.082 -2.3,-3.09 -1.57,-1.981 -3.9,-4.852 -7.53,-8.051 -7.38,-6.289 -19.51,-12.379 -34.56,-16.961 -14.95,-4.707 -32.69,-9.277 -51.94,-12.707 -19.26,-3.402 -39.94,-6.012 -60.65,-7.793 -20.72,-1.648 -41.42,-2.75 -60.83,-3.707 -19.44,-0.934 -37.68,-1.262 -53.32,-0.691 -15.64,0.539 -28.62,2.179 -37.65,3.558 -9.11,1.442 -14.1,2.543 -14.1,2.543 l -0.11,0.02 c -1.25,0.277 -2.03,1.508 -1.76,2.75 0.27,1.207 1.45,1.988 2.66,1.769"
         style="fill:#2f6981;fill-opacity:1;fill-rule:nonzero;stroke:none"
         transform="matrix(0.13333333,0,0,-0.13333333,0,666.66667)" />
      <path
         id="path28"
         d="m 2331.77,1679.42 c 0,0 -5.4,-0.56 -14.86,-1.53 -9.43,-0.92 -23.05,-2.33 -39.35,-3.27 -16.3,-1.04 -35.36,-1.86 -55.79,-2.22 -20.43,-0.21 -42.23,0.03 -64.02,0.72 -43.56,1.8 -87,5.97 -119.34,10.75 -16.2,2.16 -29.59,4.67 -38.97,6.32 -9.37,1.71 -14.73,2.7 -14.73,2.7 -1.82,0.33 -3.03,2.08 -2.7,3.9 0.33,1.78 2.03,2.97 3.8,2.72 0,0 21.46,-3.07 53.74,-6.62 16.12,-1.96 35,-3.46 55.2,-5.26 20.22,-1.65 41.82,-2.87 63.43,-3.78 21.61,-0.91 43.24,-1.37 63.53,-1.38 20.28,0.08 39.23,0.14 55.45,0.79 32.41,0.9 54.13,2.29 54.13,2.29 1.7,0.11 3.16,-1.18 3.27,-2.87 0.1,-1.66 -1.16,-3.09 -2.79,-3.26"
         style="fill:#133544;fill-opacity:1;fill-rule:nonzero;stroke:none"
         transform="matrix(0.13333333,0,0,-0.13333333,0,666.66667)" />
      <path
         id="path29"
         d="m 2335.12,1713.14 c 0,0 -5.39,-0.4 -14.82,-1.1 -9.41,-0.66 -22.99,-1.7 -39.22,-2.27 -32.47,-1.47 -75.86,-1.54 -119.18,0.38 -43.31,2.16 -86.51,6.31 -118.7,10.86 -16.12,2.07 -29.47,4.44 -38.82,5.98 -9.34,1.61 -14.68,2.53 -14.68,2.53 -1.82,0.32 -3.05,2.05 -2.73,3.88 0.3,1.78 1.98,2.98 3.76,2.76 0,0 21.4,-2.77 53.56,-6.12 16.06,-1.84 34.86,-3.31 54.98,-5.11 20.13,-1.66 41.63,-2.98 63.14,-4.06 21.52,-1.1 43.05,-1.83 63.25,-2.16 20.19,-0.26 39.05,-0.56 55.22,-0.3 32.29,0.16 53.93,0.88 53.93,0.88 1.7,0.05 3.12,-1.28 3.18,-2.98 0.05,-1.65 -1.24,-3.04 -2.87,-3.17"
         style="fill:#133544;fill-opacity:1;fill-rule:nonzero;stroke:none"
         transform="matrix(0.13333333,0,0,-0.13333333,0,666.66667)" />
      <path
         id="path30"
         d="m 2893.72,1680.06 c 0,0 -5.36,-0.85 -14.74,-2.35 -9.37,-1.44 -22.9,-3.6 -39.11,-5.44 -16.23,-1.95 -35.2,-3.83 -55.58,-5.31 -20.39,-1.34 -42.17,-2.31 -63.96,-2.83 -43.6,-0.62 -87.21,1.13 -119.76,4.11 -16.29,1.26 -29.8,3.02 -39.26,4.15 -9.45,1.19 -14.85,1.87 -14.85,1.87 -1.84,0.24 -3.15,1.92 -2.91,3.76 0.22,1.79 1.85,3.07 3.64,2.92 0,0 21.6,-1.88 54.02,-3.63 16.2,-1.06 35.14,-1.52 55.41,-2.2 20.27,-0.52 41.91,-0.54 63.54,-0.25 21.63,0.29 43.25,1.03 63.51,2.15 20.24,1.2 39.15,2.31 55.32,3.85 32.31,2.7 53.92,5.29 53.92,5.29 1.68,0.21 3.21,-1 3.42,-2.68 0.19,-1.65 -0.98,-3.15 -2.61,-3.41"
         style="fill:#133544;fill-opacity:1;fill-rule:nonzero;stroke:none"
         transform="matrix(0.13333333,0,0,-0.13333333,0,666.66667)" />
      <path
         id="path31"
         d="m 2895.2,1713.92 c 0,0 -5.36,-0.7 -14.74,-1.93 -9.36,-1.17 -22.85,-2.97 -39.02,-4.44 -32.35,-3.26 -75.66,-5.73 -119.03,-6.22 -43.37,-0.25 -86.72,1.5 -119.12,4.26 -16.21,1.17 -29.67,2.8 -39.09,3.82 -9.41,1.09 -14.79,1.71 -14.79,1.71 -1.84,0.21 -3.16,1.88 -2.95,3.72 0.21,1.79 1.82,3.09 3.6,2.96 0,0 21.53,-1.58 53.82,-3.13 16.14,-0.95 34.99,-1.37 55.18,-2.06 20.19,-0.54 41.73,-0.67 63.27,-0.55 21.54,0.09 43.08,0.56 63.27,1.35 20.18,0.86 39.03,1.61 55.15,2.76 32.24,1.95 53.8,3.86 53.8,3.86 1.69,0.15 3.19,-1.1 3.34,-2.79 0.14,-1.64 -1.07,-3.11 -2.69,-3.32"
         style="fill:#133544;fill-opacity:1;fill-rule:nonzero;stroke:none"
         transform="matrix(0.13333333,0,0,-0.13333333,0,666.66667)" />
      <path
         id="path32"
         d="m 2676.15,2446.5 c 0,0 0.87,-3.77 2.4,-10.35 0.67,-3.36 1.82,-7.23 3.23,-11.58 1.27,-4.4 2.9,-9.3 4.98,-14.62 1.82,-5.39 4.31,-11.02 7.03,-16.93 2.53,-5.99 6.12,-11.88 9.32,-18.19 3.68,-6.06 7.25,-12.46 11.66,-18.47 4.06,-6.25 8.97,-12.01 13.61,-17.97 5.08,-5.59 9.81,-11.5 15.24,-16.6 5.11,-5.42 10.76,-10.09 16.05,-14.81 5.62,-4.28 10.81,-8.81 16.21,-12.41 5.32,-3.75 10.4,-7.22 15.36,-9.98 4.83,-3 9.42,-5.46 13.55,-7.54 4.08,-2.18 7.68,-4 10.77,-5.22 6.08,-2.7 9.56,-4.24 9.56,-4.24 l 0.22,-0.1 c 1.69,-0.75 2.46,-2.73 1.71,-4.43 -0.72,-1.6 -2.55,-2.37 -4.18,-1.8 0,0 -3.71,1.3 -10.19,3.59 -3.28,1.07 -7.11,2.72 -11.48,4.71 -4.43,1.86 -9.34,4.15 -14.46,7.12 -5.27,2.7 -10.69,6.1 -16.38,9.8 -5.8,3.53 -11.37,8.05 -17.25,12.53 -5.58,4.86 -11.53,9.68 -16.93,15.28 -5.7,5.31 -10.81,11.34 -16.06,17.23 -4.76,6.3 -9.79,12.4 -13.94,18.99 -4.5,6.34 -8.15,13.07 -11.88,19.45 -3.33,6.6 -6.66,12.94 -9.1,19.27 -2.59,6.26 -4.93,12.21 -6.61,17.89 -1.98,5.55 -3.28,10.85 -4.31,15.59 -1.16,4.71 -2.06,8.78 -2.48,12.11 -1.08,6.68 -1.69,10.5 -1.69,10.5 -0.27,1.67 0.88,3.25 2.55,3.52 1.61,0.26 3.12,-0.78 3.49,-2.34"
         style="fill:#133544;fill-opacity:1;fill-rule:nonzero;stroke:none"
         transform="matrix(0.13333333,0,0,-0.13333333,0,666.66667)" />
      <path
         id="path33"
         d="m 2213.79,2445.32 c 0,0 -0.61,-3.82 -1.68,-10.5 -0.43,-3.33 -1.33,-7.4 -2.49,-12.11 -1.02,-4.74 -2.33,-10.04 -4.31,-15.59 -1.68,-5.68 -4.02,-11.63 -6.61,-17.89 -2.44,-6.33 -5.77,-12.67 -9.09,-19.27 -3.74,-6.38 -7.39,-13.11 -11.89,-19.45 -4.15,-6.59 -9.17,-12.69 -13.94,-18.99 -5.25,-5.89 -10.36,-11.92 -16.06,-17.23 -5.4,-5.6 -11.35,-10.42 -16.93,-15.28 -5.88,-4.48 -11.45,-9 -17.25,-12.53 -5.69,-3.7 -11.11,-7.1 -16.38,-9.8 -5.12,-2.97 -10.03,-5.26 -14.46,-7.12 -4.36,-1.99 -8.2,-3.64 -11.48,-4.71 -6.48,-2.29 -10.19,-3.59 -10.19,-3.59 -1.74,-0.62 -3.66,0.3 -4.27,2.05 -0.59,1.66 0.21,3.47 1.79,4.17 l 0.23,0.11 c 0,0 3.48,1.54 9.57,4.24 3.08,1.22 6.68,3.04 10.76,5.22 4.13,2.08 8.72,4.54 13.55,7.54 4.96,2.76 10.04,6.23 15.36,9.98 5.4,3.6 10.59,8.13 16.21,12.41 5.29,4.72 10.94,9.39 16.05,14.81 5.43,5.1 10.16,11.01 15.24,16.6 4.64,5.96 9.55,11.72 13.61,17.97 4.41,6.01 7.98,12.41 11.66,18.47 3.2,6.31 6.79,12.2 9.32,18.19 2.72,5.91 5.21,11.54 7.03,16.93 2.08,5.32 3.71,10.22 4.98,14.62 1.41,4.35 2.56,8.22 3.23,11.58 1.53,6.58 2.4,10.35 2.4,10.35 0.39,1.65 2.04,2.68 3.7,2.3 1.58,-0.37 2.59,-1.9 2.34,-3.48"
         style="fill:#133544;fill-opacity:1;fill-rule:nonzero;stroke:none"
         transform="matrix(0.13333333,0,0,-0.13333333,0,666.66667)" />
      <path
         id="path34"
         d="M 3302.89,3117.29 H 3193.4 v 414.63 h 109.49 v -414.63"
         style="fill:#2f3031;fill-opacity:1;fill-rule:nonzero;stroke:none"
         transform="matrix(0.13333333,0,0,-0.13333333,0,666.66667)" />
      <path
         id="path35"
         d="m 3405.73,3324.6 c 0,-114.49 -47.07,-207.31 -105.13,-207.31 -58.07,0 -105.14,92.82 -105.14,207.31 0,114.5 47.07,207.32 105.14,207.32 58.06,0 105.13,-92.82 105.13,-207.32"
         style="fill:#2f3031;fill-opacity:1;fill-rule:nonzero;stroke:none"
         transform="matrix(0.13333333,0,0,-0.13333333,0,666.66667)" />
      <path
         id="path36"
         d="m 3300.6,3324.6 c 0,-114.49 -47.07,-207.31 -105.14,-207.31 -58.06,0 -105.13,92.82 -105.13,207.31 0,114.5 47.07,207.32 105.13,207.32 58.07,0 105.14,-92.82 105.14,-207.32"
         style="fill:#242525;fill-opacity:1;fill-rule:nonzero;stroke:none"
         transform="matrix(0.13333333,0,0,-0.13333333,0,666.66667)" />
      <path
         id="path37"
         d="m 3224.35,3320.6 c 0,-41.3 -15.81,-74.78 -35.32,-74.78 -19.5,0 -35.31,33.48 -35.31,74.78 0,41.3 15.81,74.78 35.31,74.78 19.51,0 35.32,-33.48 35.32,-74.78"
         style="fill:#859184;fill-opacity:1;fill-rule:nonzero;stroke:none"
         transform="matrix(0.13333333,0,0,-0.13333333,0,666.66667)" />
      <path
         id="path38"
         d="m 2069.56,3114.21 c 0,0 -27.84,-89.16 -38.33,-111.29 l -18.89,23.26 c -31.51,36.22 -121.64,92.25 -160.34,120.64 117.66,293.04 187.33,280.94 252.09,293.67 34.09,6.7 73.97,13.59 108.47,18.89 217.89,33.51 545.9,-18.17 545.9,-18.17 64.76,-12.72 134.44,-0.63 252.09,-293.67 -38.7,-28.39 -128.82,-84.42 -160.33,-120.63 l -18.9,-23.27 c -10.49,22.13 -38.33,111.29 -38.33,111.29 l -0.47,-21.51 c -4.54,-208.05 -8.62,-394.6 -13.16,-602.65 -0.29,-13.28 -2.1,-29.12 -13.92,-35.17 0,0 -103.85,-19.89 -349.28,-19.89 0,0 -305.42,1.65 -316.75,28 -3.14,7.31 -4.8,15.05 -5.16,22.99 -2.15,47.48 -4.3,94.95 -6.45,142.42 -2.8,61.9 -5.6,123.79 -8.4,185.69 -5.2,114.95 -9.84,299.4 -9.84,299.4"
         style="fill:#f9b732;fill-opacity:1;fill-rule:nonzero;stroke:none"
         transform="matrix(0.13333333,0,0,-0.13333333,0,666.66667)" />
      <path
         id="path39"
         d="m 2989.1,3135.57 c 10.1,-16.74 16.39,-26.66 24.58,-44.41 l -1.08,2.26 c 25.08,85.87 51.14,161.34 51.14,161.34 4.3,41.75 -6.17,58.2 -19.88,89.2 -3.31,7.49 -2.91,16.65 0.24,24.21 3.15,7.57 10.99,12.94 19.18,13.14 7.06,0.17 14,-3.14 20.98,-2.12 9.42,1.39 18.07,10.45 26.98,7.1 2.98,-1.12 5.41,-3.55 8.53,-4.21 8.22,-1.75 14.43,9.3 22.84,9.1 6.3,-0.16 11.43,-6.7 17.68,-5.9 2.66,0.35 4.94,2 7.44,2.97 6.78,2.64 14.75,-0.05 20.09,-5 5.33,-4.95 8.48,-11.79 11,-18.61 6.47,-17.46 9.72,-36.61 5.77,-54.81 -5.94,-27.39 -27.39,-56.81 -26.02,-84.81 5.14,-104.72 -25.43,-299.37 -54.45,-400.12 -8.19,-28.41 -18.67,-57.93 -41.28,-76.97 -17.48,-14.73 -41.35,-21.6 -63.98,-18.39 -24.2,3.42 -45.85,17.69 -62.38,35.69 -16.53,17.99 -28.52,39.62 -39.78,61.3 -28.58,55.09 -53.45,130.85 -76,188.67 0,0 25.2,49.51 79.29,78.22 54.09,28.71 69.11,42.15 69.11,42.15"
         style="fill:#f6b2a3;fill-opacity:1;fill-rule:nonzero;stroke:none"
         transform="matrix(0.13333333,0,0,-0.13333333,0,666.66667)" />
      <path
         id="path40"
         d="m 3012.6,3093.42 c 0,0 -0.46,-3.31 -1.53,-9.04 -1.18,-5.69 -2.5,-13.91 -4.6,-23.63 -4.02,-19.48 -10.04,-45.23 -16.15,-70.91 -6.21,-25.65 -12.39,-51.26 -16.66,-70.58 -2.11,-9.66 -3.95,-17.74 -4.95,-23.45 -0.95,-5.71 -1.65,-9 -1.65,-9 0,0 -0.25,3.32 -0.44,9.18 0.08,5.82 -0.02,14.22 0.92,24.2 1.6,19.98 6.11,46.31 12.3,72.16 3.23,12.9 6.55,25.77 10.19,37.68 3.53,11.94 7.17,22.98 10.51,32.38 6.73,18.78 12.06,31.01 12.06,31.01"
         style="fill:#d76d62;fill-opacity:1;fill-rule:nonzero;stroke:none"
         transform="matrix(0.13333333,0,0,-0.13333333,0,666.66667)" />
      <path
         id="path41"
         d="m 2534.93,3667.9 c 4.53,-36.15 9.06,-72.3 13.59,-108.45 1.66,-13.27 3.58,-35.88 9.81,-47.71 9.98,-18.93 92.64,-49.86 108.85,-58.91 0,0 -64.81,-56.43 -231.72,-63.04 -166.92,-6.61 -222.9,69.59 -222.9,69.59 16.21,9.05 98.87,39.98 108.85,58.92 6.23,11.82 8.16,34.44 9.82,47.7 4.53,36.15 9.06,72.3 13.59,108.46 l 190.11,-6.56"
         style="fill:#f6b2a3;fill-opacity:1;fill-rule:nonzero;stroke:none"
         transform="matrix(0.13333333,0,0,-0.13333333,0,666.66667)" />
      <path
         id="path42"
         d="m 2614.62,4013.72 c 13.36,-72.31 -5.65,-217.82 -21.16,-275.32 -6.3,-23.38 -13.09,-47.54 -28.14,-66.5 -74.36,-93.67 -173.49,-64.07 -206.08,-42.65 -25.56,16.81 -45.92,39.88 -57.71,68.12 -30.08,72.05 -42.42,151.43 -35.64,229.22 0,0 -8.64,202.98 198.97,202.98 0,0 127.47,4.89 149.76,-115.85"
         style="fill:#f6b2a3;fill-opacity:1;fill-rule:nonzero;stroke:none"
         transform="matrix(0.13333333,0,0,-0.13333333,0,666.66667)" />
      <path
         id="path43"
         d="m 2269.7,3830.91 c -4.46,-6.46 -14.79,-6.27 -20.93,-1.39 -6.14,4.89 -8.88,12.87 -10.38,20.57 -1.47,7.53 -2.04,15.24 -1.71,22.9 0.24,5.5 1.1,11.33 4.68,15.5 3.57,4.17 9.68,5.94 14.93,4.34 5.24,-1.6 9.33,-6.48 9.97,-11.93 l 3.44,-49.99"
         style="fill:#f6b2a3;fill-opacity:1;fill-rule:nonzero;stroke:none"
         transform="matrix(0.13333333,0,0,-0.13333333,0,666.66667)" />
      <path
         id="path44"
         d="m 2614.61,3889.66 c 1.71,5.21 4.73,10.33 9.97,11.93 5.25,1.59 11.36,-0.18 14.93,-4.34 3.58,-4.18 4.44,-10.01 4.68,-15.5 0.34,-7.67 -0.24,-15.38 -1.71,-22.91 -1.5,-7.7 -4.24,-15.68 -10.38,-20.56 -6.14,-4.88 -16.47,-5.07 -20.93,1.38 0,0 -4.53,25.61 3.44,50"
         style="fill:#f6b2a3;fill-opacity:1;fill-rule:nonzero;stroke:none"
         transform="matrix(0.13333333,0,0,-0.13333333,0,666.66667)" />
      <path
         id="path45"
         d="m 2326.84,4047.95 c 8.15,-27.01 6.57,-56.48 -2.05,-83.35 -8.61,-26.87 -24,-51.25 -42.68,-72.4 -5.18,-5.85 -13.17,-11.96 -19.99,-8.15 -3.38,1.88 -5.15,5.67 -6.57,9.27 -17.09,43.5 -11.92,95.09 13.45,134.33 -0.29,32.77 9.01,68.47 31.41,92.39 22.39,23.92 54.19,38.79 86.91,40.66 12.16,0.69 24.54,-0.32 36.38,2.55 12.32,2.98 23.22,9.96 34.43,15.89 17.7,9.36 36.86,16.33 56.76,18.57 29.11,3.27 59.39,-4.02 83.53,-20.62 24.14,-16.6 41.87,-42.44 48.17,-71.05 3.58,-16.22 3.57,-33.06 1.84,-49.58 -1.78,-17.08 -5.51,-34.33 -14.39,-49.03 -11.01,-18.2 -29.53,-31.33 -49.92,-37.39 -23.3,-6.93 -49.16,-4.83 -71.03,5.78 -15.37,7.46 -29.06,19 -45.75,22.63 -9.52,2.07 -19.38,1.4 -29.11,1.51 -31.91,0.36 -63.68,9.4 -90.99,25.89 -8.59,5.18 -17.33,11.93 -19.65,21.68"
         style="fill:#2f3031;fill-opacity:1;fill-rule:nonzero;stroke:none"
         transform="matrix(0.13333333,0,0,-0.13333333,0,666.66667)" />
      <path
         id="path46"
         d="m 2340.78,3642.23 c -0.19,0.78 -0.28,1.24 -0.3,1.33 0.08,-0.07 0.16,-0.14 0.25,-0.22 0.05,-0.05 0.11,-0.1 0.17,-0.16 -0.04,-0.31 -0.08,-0.63 -0.12,-0.95"
         style="fill:#a2b091;fill-opacity:1;fill-rule:nonzero;stroke:none"
         transform="matrix(0.13333333,0,0,-0.13333333,0,666.66667)" />
      <path
         id="path47"
         d="m 2442.75,3575.26 c -0.37,0 -0.76,0 -1.14,0 -81.1,0.59 -98.49,57.46 -100.83,66.97 0.04,0.32 0.08,0.64 0.12,0.95 2.37,-2.18 7.89,-7.05 16.24,-12.52 0.7,-0.48 1.4,-0.94 2.1,-1.41 2.74,-1.79 5.94,-3.65 9.55,-5.48 16.34,-8.67 39.07,-16.79 66.97,-16.79 3.79,0 7.69,0.16 11.68,0.48 16.74,0.8 34.47,4.39 52.22,12.13 24.71,10.15 37.19,22.81 38.24,23.91 0.03,0.02 0.05,0.04 0.07,0.06 -0.2,-1.26 -11.67,-68.31 -95.22,-68.3"
         style="fill:#f18371;fill-opacity:1;fill-rule:nonzero;stroke:none"
         transform="matrix(0.13333333,0,0,-0.13333333,0,666.66667)" />
      <path
         id="path48"
         d="m 2447.44,3607.46 c 0.04,0 0.09,0 0.14,0.01 21.16,1.71 38.47,6.54 52.08,12.12 -17.75,-7.74 -35.48,-11.33 -52.22,-12.13 m -78.65,16.31 c -3.61,1.83 -6.81,3.69 -9.55,5.48 -0.7,0.47 -1.4,0.93 -2.1,1.41 3.42,-2.24 7.31,-4.59 11.65,-6.89 m -28.06,19.57 c -0.09,0.08 -0.17,0.15 -0.25,0.22 0,0.01 0,0.02 0,0.02 0.07,-0.08 0.16,-0.16 0.25,-0.24 m 197.17,0.16 c 0.05,0.05 0.08,0.08 0.08,0.08 0,0 0,-0.01 -0.01,-0.02 -0.02,-0.02 -0.04,-0.04 -0.07,-0.06"
         style="fill:#f18371;fill-opacity:1;fill-rule:nonzero;stroke:none"
         transform="matrix(0.13333333,0,0,-0.13333333,0,666.66667)" />
      <path
         id="path49"
         d="m 2306.27,3878.91 c 0,0 5.49,1.98 14.32,3.87 8.73,1.93 20.68,3.13 32.64,2.79 11.95,-0.48 23.8,-2.49 32.38,-5.04 8.6,-2.47 14.05,-4.9 14.05,-4.9 l 0.06,-0.03 c 1.04,-0.46 1.51,-1.68 1.05,-2.71 -0.43,-0.96 -1.49,-1.43 -2.47,-1.14 0,0 -22.31,6.61 -45.31,7.25 -11.47,0.52 -22.96,-0.29 -31.52,-1.44 -8.5,-1.05 -14.29,-2.31 -14.29,-2.31 -1.01,-0.21 -2.02,0.43 -2.24,1.45 -0.2,0.93 0.33,1.85 1.21,2.17 l 0.12,0.04"
         style="fill:#2f3031;fill-opacity:1;fill-rule:nonzero;stroke:none"
         transform="matrix(0.13333333,0,0,-0.13333333,0,666.66667)" />
      <path
         id="path50"
         d="m 2369.31,3864.56 c 0,-9.12 -7.4,-16.52 -16.52,-16.52 -9.13,0 -16.53,7.4 -16.53,16.52 0,9.13 7.4,16.53 16.53,16.53 9.12,0 16.52,-7.4 16.52,-16.53"
         style="fill:#2f3031;fill-opacity:1;fill-rule:nonzero;stroke:none"
         transform="matrix(0.13333333,0,0,-0.13333333,0,666.66667)" />
      <path
         id="path51"
         d="m 2570.01,3877.18 c 0,0 -5.83,1.04 -14.37,1.79 -8.59,0.84 -20.11,1.24 -31.56,0.31 -22.97,-1.47 -45.04,-8.87 -45.04,-8.87 -1.08,-0.36 -2.24,0.22 -2.61,1.3 -0.33,0.99 0.14,2.05 1.05,2.5 l 0.07,0.03 c 0,0 5.35,2.62 13.87,5.4 8.49,2.85 20.26,5.29 32.19,6.2 11.94,0.76 23.93,0 32.73,-1.62 8.89,-1.57 14.45,-3.35 14.45,-3.35 l 0.13,-0.04 c 0.99,-0.32 1.53,-1.38 1.22,-2.37 -0.29,-0.91 -1.21,-1.45 -2.13,-1.28"
         style="fill:#2f3031;fill-opacity:1;fill-rule:nonzero;stroke:none"
         transform="matrix(0.13333333,0,0,-0.13333333,0,666.66667)" />
      <path
         id="path52"
         d="m 2507.91,3864.82 c 0,-9.12 7.4,-16.52 16.53,-16.52 9.12,0 16.52,7.4 16.52,16.52 0,9.13 -7.4,16.53 -16.52,16.53 -9.13,0 -16.53,-7.4 -16.53,-16.53"
         style="fill:#2f3031;fill-opacity:1;fill-rule:nonzero;stroke:none"
         transform="matrix(0.13333333,0,0,-0.13333333,0,666.66667)" />
      <path
         id="path53"
         d="m 2410.3,3898.22 c 3.01,10.37 1.89,21.95 -3.58,31.26 -1.64,-3.32 -6.47,-4.53 -9.48,-2.36 -1.26,0.91 -2.22,2.29 -3.69,2.79 -1.19,0.39 -2.48,0.13 -3.72,0 -5.49,-0.59 -10.88,1.42 -16.23,2.76 -23.44,5.88 -49.76,-1.7 -66.48,-19.13 5.79,-4.4 13.92,-2.58 21.16,-1.93 28.22,2.51 50.48,-16.68 78.76,-14.99 0,0 2.84,0.13 3.26,1.6"
         style="fill:#2f3031;fill-opacity:1;fill-rule:nonzero;stroke:none"
         transform="matrix(0.13333333,0,0,-0.13333333,0,666.66667)" />
      <path
         id="path54"
         d="m 2473.21,3899.43 c -2.76,10.44 -1.36,21.99 4.33,31.17 1.56,-3.36 6.36,-4.68 9.42,-2.59 1.28,0.88 2.27,2.24 3.75,2.7 1.2,0.37 2.48,0.08 3.73,-0.09 5.47,-0.71 10.9,1.16 16.29,2.38 23.56,5.32 49.7,-2.88 66,-20.71 -5.89,-4.26 -13.97,-2.24 -21.2,-1.42 -28.15,3.18 -50.86,-15.48 -79.09,-13.12 0,0 -2.83,0.2 -3.23,1.68"
         style="fill:#2f3031;fill-opacity:1;fill-rule:nonzero;stroke:none"
         transform="matrix(0.13333333,0,0,-0.13333333,0,666.66667)" />
      <path
         id="path55"
         d="m 2445.36,3732.35 c 0,0 -0.94,-0.35 -2.78,-0.88 -1.87,-0.52 -4.49,-1.19 -7.77,-1.45 -6.53,-0.6 -15.45,0.48 -23.5,4.61 -3.75,1.94 -7.5,4.72 -10.41,7.53 -3,2.85 -5.24,6.02 -6.97,8.79 -1.73,2.8 -2.71,5.38 -3.36,7.16 -0.64,1.79 -0.92,2.83 -0.92,2.83 l -0.02,0.07 1.18,2.06 2,-1.01 c 0,0 1.46,-3.79 4.93,-8.62 1.69,-2.43 4.02,-5 6.69,-7.52 2.76,-2.54 5.82,-4.69 9.46,-6.58 6.78,-3.66 14.85,-5 20.74,-5 2.96,0.02 5.49,0.2 7.17,0.48 1.72,0.26 2.78,0.5 2.78,0.5 l 1.84,-1.14 -0.95,-1.79 -0.11,-0.04"
         style="fill:#d76d62;fill-opacity:1;fill-rule:nonzero;stroke:none"
         transform="matrix(0.13333333,0,0,-0.13333333,0,666.66667)" />
      <path
         id="path56"
         d="m 2597.1,3992.36 c -4.56,-31.92 1.32,-65.25 16.53,-93.69 1.79,-3.33 4.19,-6.96 7.93,-7.49 3.19,-0.46 6.31,1.65 8.02,4.37 1.72,2.73 2.32,5.98 2.89,9.15 5.88,32.67 11.52,67.63 -1.79,98.04 -0.98,2.24 -2.11,4.52 -3.99,6.09 -2.16,1.82 -5.09,2.49 -7.92,2.55 -11.67,0.24 -22.37,-10.61 -21.97,-22.27"
         style="fill:#2f3031;fill-opacity:1;fill-rule:nonzero;stroke:none"
         transform="matrix(0.13333333,0,0,-0.13333333,0,666.66667)" />
      <path
         id="path57"
         d="m 2430.06,3864.06 c 0,0 -0.86,-6.17 -2.15,-15.41 -1.15,-9.22 -2.44,-21.53 -2.79,-33.87 -0.27,-6.17 -0.4,-12.35 -0.28,-18.14 0.06,-3.02 0.08,-5.16 0.85,-6.84 0.57,-1.36 2.05,-2.85 3.62,-3.73 3.17,-1.81 6.86,-2.22 9.44,-2.37 2.67,-0.13 4.2,-0.2 4.2,-0.2 1.4,-0.07 2.47,-1.25 2.41,-2.64 -0.06,-1.22 -0.98,-2.2 -2.14,-2.38 l -0.06,-0.01 c 0,0 -1.54,-0.24 -4.41,-0.43 -2.81,-0.04 -7.34,-0.53 -12.63,2 -2.55,1.29 -5.22,3.18 -7.09,6.66 -1.72,3.19 -1.86,6.92 -1.93,9.73 -0.21,5.96 -0.29,12.32 -0.03,18.68 0.62,12.71 2.37,25.34 4.45,34.64 2.02,9.33 4.04,15.31 4.04,15.31 l 0.01,0.05 c 0.41,1.22 1.72,1.87 2.94,1.46 1.07,-0.36 1.7,-1.43 1.55,-2.51"
         style="fill:#d76d62;fill-opacity:1;fill-rule:nonzero;stroke:none"
         transform="matrix(0.13333333,0,0,-0.13333333,0,666.66667)" />
      <path
         id="path58"
         d="m 2982.37,3113.29 h -109.49 v 414.63 h 109.49 v -414.63"
         style="fill:#2f3031;fill-opacity:1;fill-rule:nonzero;stroke:none"
         transform="matrix(0.13333333,0,0,-0.13333333,0,666.66667)" />
      <path
         id="path59"
         d="m 3085.21,3320.6 c 0,-114.49 -47.07,-207.31 -105.14,-207.31 -58.06,0 -105.13,92.82 -105.13,207.31 0,114.5 47.07,207.32 105.13,207.32 58.07,0 105.14,-92.82 105.14,-207.32"
         style="fill:#2f3031;fill-opacity:1;fill-rule:nonzero;stroke:none"
         transform="matrix(0.13333333,0,0,-0.13333333,0,666.66667)" />
      <path
         id="path60"
         d="m 2980.07,3320.6 c 0,-114.49 -47.07,-207.31 -105.13,-207.31 -58.06,0 -105.13,92.82 -105.13,207.31 0,114.5 47.07,207.32 105.13,207.32 58.06,0 105.13,-92.82 105.13,-207.32"
         style="fill:#242525;fill-opacity:1;fill-rule:nonzero;stroke:none"
         transform="matrix(0.13333333,0,0,-0.13333333,0,666.66667)" />
      <path
         id="path61"
         d="m 2903.83,3316.6 c 0,-41.3 -15.81,-74.78 -35.32,-74.78 -19.5,0 -35.32,33.48 -35.32,74.78 0,41.3 15.82,74.78 35.32,74.78 19.51,0 35.32,-33.48 35.32,-74.78"
         style="fill:#859184;fill-opacity:1;fill-rule:nonzero;stroke:none"
         transform="matrix(0.13333333,0,0,-0.13333333,0,666.66667)" />
      <path
         id="path62"
         d="m 1559.66,3116.57 h 109.5 v 414.63 h -109.5 v -414.63"
         style="fill:#2f3031;fill-opacity:1;fill-rule:nonzero;stroke:none"
         transform="matrix(0.13333333,0,0,-0.13333333,0,666.66667)" />
      <path
         id="path63"
         d="m 1456.82,3323.88 c 0,-114.49 47.07,-207.31 105.14,-207.31 58.06,0 105.13,92.82 105.13,207.31 0,114.5 -47.07,207.32 -105.13,207.32 -58.07,0 -105.14,-92.82 -105.14,-207.32"
         style="fill:#2f3031;fill-opacity:1;fill-rule:nonzero;stroke:none"
         transform="matrix(0.13333333,0,0,-0.13333333,0,666.66667)" />
      <path
         id="path64"
         d="m 1561.96,3323.88 c 0,-114.49 47.07,-207.31 105.13,-207.31 58.06,0 105.13,92.82 105.13,207.31 0,114.5 -47.07,207.32 -105.13,207.32 -58.06,0 -105.13,-92.82 -105.13,-207.32"
         style="fill:#242525;fill-opacity:1;fill-rule:nonzero;stroke:none"
         transform="matrix(0.13333333,0,0,-0.13333333,0,666.66667)" />
      <path
         id="path65"
         d="m 1638.2,3319.88 c 0,-41.3 15.81,-74.78 35.32,-74.78 19.5,0 35.32,33.48 35.32,74.78 0,41.3 -15.82,74.78 -35.32,74.78 -19.51,0 -35.32,-33.48 -35.32,-74.78"
         style="fill:#859184;fill-opacity:1;fill-rule:nonzero;stroke:none"
         transform="matrix(0.13333333,0,0,-0.13333333,0,666.66667)" />
      <path
         id="path66"
         d="m 1873.46,3134.84 c -10.11,-16.73 -16.4,-26.65 -24.58,-44.4 l 1.07,2.26 c -25.08,85.87 -51.13,161.33 -51.13,161.33 -4.31,41.75 6.17,58.21 19.87,89.2 3.31,7.5 2.91,16.66 -0.24,24.22 -3.14,7.57 -10.98,12.94 -19.18,13.14 -7.05,0.17 -14,-3.14 -20.98,-2.12 -9.42,1.38 -18.07,10.44 -26.98,7.1 -2.98,-1.12 -5.41,-3.55 -8.52,-4.21 -8.23,-1.76 -14.44,9.3 -22.85,9.09 -6.3,-0.15 -11.42,-6.7 -17.67,-5.89 -2.66,0.35 -4.95,1.99 -7.45,2.97 -6.78,2.63 -14.75,-0.06 -20.08,-5 -5.34,-4.95 -8.49,-11.79 -11.01,-18.61 -6.47,-17.47 -9.71,-36.61 -5.77,-54.81 5.94,-27.4 27.39,-56.81 26.02,-84.81 -5.14,-104.72 25.43,-299.38 54.45,-400.12 8.19,-28.41 18.67,-57.93 41.28,-76.98 17.48,-14.73 41.35,-21.59 63.99,-18.39 24.19,3.43 45.84,17.7 62.37,35.69 16.53,18 28.52,39.62 39.78,61.31 28.58,55.09 53.45,130.85 76,188.66 0,0 -25.2,49.52 -79.29,78.23 -54.09,28.71 -69.1,42.14 -69.1,42.14"
         style="fill:#f6b2a3;fill-opacity:1;fill-rule:nonzero;stroke:none"
         transform="matrix(0.13333333,0,0,-0.13333333,0,666.66667)" />
      <path
         id="path67"
         d="m 1849.95,3092.7 c 0,0 5.33,-12.23 12.06,-31.01 3.34,-9.4 6.99,-20.44 10.51,-32.38 3.64,-11.91 6.96,-24.78 10.19,-37.68 6.19,-25.85 10.7,-52.18 12.31,-72.17 0.93,-9.97 0.83,-18.37 0.91,-24.2 -0.18,-5.85 -0.44,-9.17 -0.44,-9.17 0,0 -0.7,3.29 -1.65,9 -1,5.71 -2.84,13.78 -4.94,23.45 -4.28,19.32 -10.46,44.93 -16.67,70.58 -6.11,25.68 -12.13,51.43 -16.15,70.91 -2.09,9.71 -3.42,17.93 -4.6,23.63 -1.06,5.72 -1.53,9.04 -1.53,9.04"
         style="fill:#d76d62;fill-opacity:1;fill-rule:nonzero;stroke:none"
         transform="matrix(0.13333333,0,0,-0.13333333,0,666.66667)" />
      <path
         id="path68"
         d="m 1880.18,3112.57 h 109.5 v 414.62 h -109.5 v -414.62"
         style="fill:#2f3031;fill-opacity:1;fill-rule:nonzero;stroke:none"
         transform="matrix(0.13333333,0,0,-0.13333333,0,666.66667)" />
      <path
         id="path69"
         d="m 1777.34,3319.88 c 0,-114.5 47.07,-207.31 105.14,-207.31 58.06,0 105.13,92.81 105.13,207.31 0,114.5 -47.07,207.31 -105.13,207.31 -58.07,0 -105.14,-92.81 -105.14,-207.31"
         style="fill:#2f3031;fill-opacity:1;fill-rule:nonzero;stroke:none"
         transform="matrix(0.13333333,0,0,-0.13333333,0,666.66667)" />
      <path
         id="path70"
         d="m 1882.48,3319.88 c 0,-114.5 47.07,-207.31 105.13,-207.31 58.07,0 105.14,92.81 105.14,207.31 0,114.5 -47.07,207.31 -105.14,207.31 -58.06,0 -105.13,-92.81 -105.13,-207.31"
         style="fill:#242525;fill-opacity:1;fill-rule:nonzero;stroke:none"
         transform="matrix(0.13333333,0,0,-0.13333333,0,666.66667)" />
      <path
         id="path71"
         d="m 1958.72,3315.88 c 0,-41.3 15.81,-74.78 35.32,-74.78 19.51,0 35.32,33.48 35.32,74.78 0,41.3 -15.81,74.78 -35.32,74.78 -19.51,0 -35.32,-33.48 -35.32,-74.78"
         style="fill:#859184;fill-opacity:1;fill-rule:nonzero;stroke:none"
         transform="matrix(0.13333333,0,0,-0.13333333,0,666.66667)" />
      <path
         id="path72"
         d="m 2437.61,2411.74 c -91.73,0 -169.17,10.07 -225.83,20.89 0.13,0.76 0.24,1.49 0.33,2.19 0.54,3.38 0.96,6.03 1.25,7.82 90.86,-6.32 202.8,-6.93 202.8,-6.93 4.87,0 9.68,0.01 14.44,0.03 0.22,-0.01 0.45,-0.02 0.68,-0.03 10.9,-0.37 22.31,-0.54 34.1,-0.54 34.81,0 72.78,1.5 109.64,3.68 37.6,1.6 69.22,3.64 95.21,5.74 0.22,-1.4 0.77,-4.79 1.57,-9.77 0.03,-0.3 0.08,-0.61 0.12,-0.92 -84.64,-16.2 -163.69,-22.17 -234.31,-22.16 m -232.74,22.23 c -32.87,6.49 -58.23,13.11 -74.67,17.86 19.62,-3.69 46.85,-6.53 76.76,-8.73 -0.4,-1.73 -0.94,-4.07 -1.61,-6.95 -0.14,-0.71 -0.3,-1.43 -0.48,-2.18 m 473.87,1.25 c -0.06,0.32 -0.13,0.62 -0.19,0.93 -0.98,4.24 -1.7,7.31 -2.08,8.96 61.07,5.14 88.97,10.49 88.97,10.49 v 0 c -29.44,-8.05 -58.36,-14.79 -86.7,-20.38"
         style="fill:#1b3f54;fill-opacity:1;fill-rule:nonzero;stroke:none"
         transform="matrix(0.13333333,0,0,-0.13333333,0,666.66667)" />
      <path
         id="path73"
         d="m 2671.92,2433.9 c -0.04,0.31 -0.09,0.62 -0.12,0.92 -0.8,4.98 -1.35,8.37 -1.57,9.77 2.12,0.17 4.2,0.35 6.24,0.52 0.38,-1.65 1.1,-4.72 2.08,-8.96 0.06,-0.31 0.13,-0.61 0.19,-0.93 -2.26,-0.44 -4.56,-0.89 -6.82,-1.32"
         style="fill:#0e232f;fill-opacity:1;fill-rule:nonzero;stroke:none"
         transform="matrix(0.13333333,0,0,-0.13333333,0,666.66667)" />
      <path
         id="path74"
         d="m 2211.78,2432.63 c -2.34,0.44 -4.65,0.89 -6.91,1.34 0.18,0.75 0.34,1.47 0.48,2.18 0.67,2.88 1.21,5.22 1.61,6.95 2.12,-0.16 4.26,-0.31 6.4,-0.46 -0.29,-1.79 -0.71,-4.44 -1.25,-7.82 -0.09,-0.7 -0.2,-1.43 -0.33,-2.19"
         style="fill:#0e232f;fill-opacity:1;fill-rule:nonzero;stroke:none"
         transform="matrix(0.13333333,0,0,-0.13333333,0,666.66667)" />
      <path
         id="path75"
         d="m 2416.16,2435.71 c 0,0 -111.94,0.61 -202.8,6.93 -2.14,0.15 -4.28,0.3 -6.4,0.46 -29.91,2.2 -57.14,5.04 -76.76,8.73 -1.74,0.5 -3.38,0.98 -4.92,1.44 56.04,-13.04 189.85,-13.57 305.32,-17.53 -4.76,-0.02 -9.57,-0.03 -14.44,-0.03 m 158.86,3.14 c 99.22,5.89 190.42,16.75 190.42,16.75 0,0 -27.9,-5.35 -88.97,-10.49 -2.04,-0.17 -4.12,-0.35 -6.24,-0.52 -25.99,-2.1 -57.61,-4.14 -95.21,-5.74 m -449.74,14.42 c -6.85,1.59 -12.54,3.37 -16.89,5.37 0,0 5.84,-2.09 16.89,-5.37"
         style="fill:#7d802b;fill-opacity:1;fill-rule:nonzero;stroke:none"
         transform="matrix(0.13333333,0,0,-0.13333333,0,666.66667)" />
      <path
         id="path76"
         d="m 1597.25,233.559 h -110.06 v 416.773 h 110.06 V 233.559"
         style="fill:#2f3031;fill-opacity:1;fill-rule:nonzero;stroke:none"
         transform="matrix(0.13333333,0,0,-0.13333333,0,666.66667)" />
      <path
         id="path77"
         d="m 1700.62,441.949 c 0,-115.09 -47.32,-208.39 -105.68,-208.39 -58.36,0 -105.68,93.3 -105.68,208.39 0,115.082 47.32,208.383 105.68,208.383 58.36,0 105.68,-93.301 105.68,-208.383"
         style="fill:#2f3031;fill-opacity:1;fill-rule:nonzero;stroke:none"
         transform="matrix(0.13333333,0,0,-0.13333333,0,666.66667)" />
      <path
         id="path78"
         d="m 1594.94,441.949 c 0,-115.09 -47.31,-208.39 -105.68,-208.39 -58.36,0 -105.67,93.3 -105.67,208.39 0,115.082 47.31,208.383 105.67,208.383 58.37,0 105.68,-93.301 105.68,-208.383"
         style="fill:#242525;fill-opacity:1;fill-rule:nonzero;stroke:none"
         transform="matrix(0.13333333,0,0,-0.13333333,0,666.66667)" />
      <path
         id="path79"
         d="m 1518.3,437.93 c 0,-41.52 -15.89,-75.168 -35.5,-75.168 -19.6,0 -35.5,33.648 -35.5,75.168 0,41.511 15.9,75.16 35.5,75.16 19.61,0 35.5,-33.649 35.5,-75.16"
         style="fill:#859184;fill-opacity:1;fill-rule:nonzero;stroke:none"
         transform="matrix(0.13333333,0,0,-0.13333333,0,666.66667)" />
      <path
         id="path80"
         d="M 1492.72,386.148 H 1171 v 103.551 h 321.72 V 386.148"
         style="fill:#859184;fill-opacity:1;fill-rule:nonzero;stroke:none"
         transform="matrix(0.13333333,0,0,-0.13333333,0,666.66667)" />
      <path
         id="path81"
         d="m 1275.08,229.539 h -110.06 v 416.77 h 110.06 v -416.77"
         style="fill:#2f3031;fill-opacity:1;fill-rule:nonzero;stroke:none"
         transform="matrix(0.13333333,0,0,-0.13333333,0,666.66667)" />
      <path
         id="path82"
         d="m 1378.44,437.93 c 0,-115.09 -47.31,-208.391 -105.67,-208.391 -58.37,0 -105.68,93.301 -105.68,208.391 0,115.082 47.31,208.379 105.68,208.379 58.36,0 105.67,-93.297 105.67,-208.379"
         style="fill:#2f3031;fill-opacity:1;fill-rule:nonzero;stroke:none"
         transform="matrix(0.13333333,0,0,-0.13333333,0,666.66667)" />
      <path
         id="path83"
         d="m 1272.77,437.93 c 0,-115.09 -47.32,-208.391 -105.68,-208.391 -58.36,0 -105.67,93.301 -105.67,208.391 0,115.082 47.31,208.379 105.67,208.379 58.36,0 105.68,-93.297 105.68,-208.379"
         style="fill:#242525;fill-opacity:1;fill-rule:nonzero;stroke:none"
         transform="matrix(0.13333333,0,0,-0.13333333,0,666.66667)" />
      <path
         id="path84"
         d="m 1196.13,433.902 c 0,-41.511 -15.89,-75.164 -35.5,-75.164 -19.61,0 -35.5,33.653 -35.5,75.164 0,41.52 15.89,75.168 35.5,75.168 19.61,0 35.5,-33.648 35.5,-75.168"
         style="fill:#859184;fill-opacity:1;fill-rule:nonzero;stroke:none"
         transform="matrix(0.13333333,0,0,-0.13333333,0,666.66667)" />
    </g>
  </g>
</svg>
