<svg version="1.1" id="Layer_1" xmlns="http://www.w3.org/2000/svg" x="0" y="0" viewBox="0 0 500 500"
    style="enable-background:new 0 0 500 500" xml:space="preserve"><style>.st1{fill:#fddf7f}</style><path d="M364.303 495H135.697c-18.112 0-32.794-14.682-32.794-32.794v-4.708c0-18.112 14.682-32.794 32.794-32.794h228.605c18.112 0 32.794 14.682 32.794 32.794v4.708c.001 18.112-14.682 32.794-32.793 32.794z" style="fill:#ecf4f7"/><path class="st1" d="M442.203 336.163c-.447-6.535-6.172-11.466-12.722-11.466h-81.922a9.497 9.497 0 0 1-9.497-9.497v-30.783c0-19.378-11.817-35.993-28.636-43.04a87.604 87.604 0 0 1-24.348 15.258l-1.302.543a87.714 87.714 0 0 1-67.545.002l-1.304-.544a87.603 87.603 0 0 1-24.35-15.259c-16.82 7.047-28.637 23.662-28.637 43.04V315.2a9.497 9.497 0 0 1-9.497 9.497H70.519c-6.551 0-12.275 4.93-12.722 11.466-.49 7.166 5.148 13.146 12.21 13.199l40.862.148a96.345 96.345 0 0 1 34.57 6.55l43.01 16.726v51.917h19.315V495h84.471v-70.297h19.317v-51.917l43.01-16.726a96.345 96.345 0 0 1 34.57-6.55l40.862-.148c7.061-.053 12.699-6.033 12.209-13.199z"/><path d="M249.324 59.537c-49.09.365-88.356 41.056-88.356 90.147v25.984c0 35.404 21.283 67.339 53.957 80.969l1.304.544a87.719 87.719 0 0 0 67.545-.002l1.302-.543c32.675-13.63 53.954-45.564 53.954-80.967v-27.102c.001-49.396-40.226-89.397-89.706-89.03z" style="fill:#aab1ba"/><path class="st1" d="m233.34 184.146-27.386 7.093c11.15 11.507 26.757 18.67 44.046 18.67s32.896-7.163 44.046-18.67l-27.393-7.095a66.418 66.418 0 0 0-33.313.002zM266.653 160.249a741746.3 741746.3 0 0 1 40.538 10.5 61.165 61.165 0 0 0 4.152-22.182c0-33.879-27.464-61.343-61.343-61.343s-61.343 27.464-61.343 61.343a61.16 61.16 0 0 0 4.152 22.182l40.53-10.498a66.422 66.422 0 0 1 33.314-.002z"/><path d="M234.025 15.975a5 5 0 0 1 5-5H245V5a5 5 0 1 1 10 0v5.975h5.975c2.762 0 5 2.238 5 5s-2.238 5-5 5H255v5.975a5 5 0 1 1-10 0v-5.975h-5.975a5 5 0 0 1-5-5zm118.914 76.249h5.975v5.975c0 2.762 2.238 5 5 5s5-2.238 5-5v-5.975h5.975c2.762 0 5-2.238 5-5s-2.238-5-5-5h-5.975v-5.975c0-2.762-2.238-5-5-5s-5 2.238-5 5v5.975h-5.975a5 5 0 1 0 0 10zm-227.828 0h5.974v5.975a5 5 0 1 0 10 0v-5.975h5.975a5 5 0 1 0 0-10h-5.975v-5.975a5 5 0 1 0-10 0v5.975h-5.974a5 5 0 1 0 0 10zM45.979 490h-7.035a5 5 0 1 0 0 10h7.035a5 5 0 1 0 0-10zm395.454 5a5 5 0 0 1-5 5H63.568a5 5 0 1 1 0-10h46.553c-7.505-6.912-12.217-16.811-12.217-27.794v-4.708c0-20.84 16.954-37.794 37.794-37.794h228.605c20.84 0 37.794 16.954 37.794 37.794v4.708c0 10.983-4.712 20.882-12.217 27.794h46.553a5 5 0 0 1 5 5zm-284.649-5h45.98v-46.243a5 5 0 1 1 10 0v11.095h74.471v-25.147H135.697c-15.326 0-27.794 12.469-27.794 27.794v4.708c0 15.325 12.468 27.794 27.794 27.794h21.087V490zm207.519 0c15.325 0 27.794-12.469 27.794-27.794v-4.708c0-15.325-12.469-27.794-27.794-27.794h-67.067v45.724c0 2.762-2.238 5-5 5s-5-2.238-5-5v-10.576h-74.471V490h151.538zm96.753 0h-7.035c-2.762 0-5 2.238-5 5s2.238 5 5 5h7.035a5 5 0 1 0 0-10zM447.19 335.822c.331 4.835-1.295 9.448-4.578 12.989a17.398 17.398 0 0 1-12.582 5.551l-40.881.147a90.999 90.999 0 0 0-32.775 6.211l-39.822 15.485v29.941c0 2.762-2.238 5-5 5s-5-2.238-5-5v-33.361l.001-.013v-78.101c0-2.762 2.238-5 5-5s5 2.238 5 5v70.803l36.196-14.076a100.977 100.977 0 0 1 36.364-6.891l40.862-.147a7.257 7.257 0 0 0 5.303-2.349 7.29 7.29 0 0 0 1.936-5.51c-.261-3.816-3.657-6.807-7.733-6.807h-81.922c-7.994 0-14.497-6.503-14.497-14.497v-30.783a41.558 41.558 0 0 0-22.798-37.146 92.877 92.877 0 0 1-17.051 11.116c-.239.121-.483.231-.724.35-.773.382-1.545.764-2.332 1.127-1.042.48-2.094.943-3.156 1.386l-1.302.543c-10.285 4.291-21.256 6.616-32.291 7.017-1.137.041-2.274.083-3.411.083-12.177 0-24.35-2.365-35.693-7.097l-1.311-.547a93.052 93.052 0 0 1-3.151-1.384 91.523 91.523 0 0 1-2.501-1.209c-.183-.091-.369-.175-.551-.267a92.832 92.832 0 0 1-17.055-11.118 41.559 41.559 0 0 0-22.798 37.146V315.2c0 7.994-6.503 14.497-14.497 14.497H70.519c-4.076 0-7.472 2.99-7.733 6.807a7.29 7.29 0 0 0 1.935 5.51 7.27 7.27 0 0 0 5.323 2.349l40.843.147a100.951 100.951 0 0 1 36.364 6.891l36.198 14.077v-70.804a5 5 0 1 1 10 0V406.149a5 5 0 1 1-10 0v-29.941l-39.822-15.485a91.012 91.012 0 0 0-32.776-6.211l-40.862-.147a17.412 17.412 0 0 1-12.602-5.551c-3.283-3.541-4.909-8.154-4.578-12.989.618-9.042 8.397-16.125 17.71-16.125h8.625a16.829 16.829 0 0 1-1.512-6.962c0-9.353 7.609-16.961 16.961-16.961s16.961 7.608 16.961 16.961c0 2.482-.549 4.835-1.512 6.962h42.399a4.503 4.503 0 0 0 4.497-4.497V284.42c0-18.36 9.628-35.037 25.05-44.28-16.394-16.937-26.02-39.854-26.02-64.469v-25.983c0-52.082 41.862-94.765 93.318-95.147.239-.002.48-.003.719-.003 24.991 0 48.487 9.676 66.236 27.294 17.921 17.788 27.79 41.489 27.79 66.738v27.102c0 24.614-9.625 47.531-26.02 64.468 15.422 9.243 25.05 25.92 25.05 44.281V315.2a4.503 4.503 0 0 0 4.497 4.497h42.398a16.829 16.829 0 0 1-1.512-6.962c0-9.353 7.608-16.961 16.961-16.961s16.962 7.608 16.962 16.961c0 2.482-.549 4.835-1.512 6.962h8.624c9.315 0 17.094 7.083 17.711 16.125zm-48.745-23.087a6.97 6.97 0 0 0 6.961 6.961c3.839 0 6.962-3.123 6.962-6.961s-3.123-6.961-6.962-6.961a6.97 6.97 0 0 0-6.961 6.961zm-310.813 0c0 3.838 3.123 6.961 6.961 6.961s6.961-3.123 6.961-6.961-3.123-6.961-6.961-6.961-6.961 3.123-6.961 6.961zm78.336-137.067c0 24.052 10.303 46.29 27.561 61.689.122.089.246.174.36.275a82.66 82.66 0 0 0 10.765 8.065l.219.138c.817.51 1.645 1.002 2.48 1.484.171.098.339.199.511.296.75.426 1.511.834 2.275 1.237.236.124.468.253.705.375.742.382 1.493.745 2.248 1.104.249.118.492.244.742.36.996.462 2 .907 3.016 1.331l1.312.548c20.231 8.438 43.448 8.438 63.688-.006l1.302-.543a82.979 82.979 0 0 0 3.019-1.333c.242-.112.478-.234.719-.348a84.01 84.01 0 0 0 2.274-1.118c.229-.118.453-.242.681-.362.773-.407 1.542-.82 2.301-1.251.165-.094.327-.19.491-.285a81.48 81.48 0 0 0 2.497-1.494l.208-.131a82.64 82.64 0 0 0 10.769-8.066c.113-.1.236-.184.356-.273 17.259-15.399 27.564-37.638 27.564-61.693v-27.102c0-22.563-8.82-43.744-24.835-59.641-15.86-15.744-36.86-24.392-59.193-24.392-.215 0-.428.001-.643.003-45.983.342-83.393 38.539-83.393 85.147l.001 25.986zm132.891 14.219a5 5 0 0 1-1.223 4.832c-12.617 13.02-29.534 20.19-47.637 20.19s-35.021-7.171-47.637-20.19a5.002 5.002 0 0 1-1.223-4.832 4.996 4.996 0 0 1 3.56-3.487l27.386-7.093a71.598 71.598 0 0 1 35.82-.002l27.394 7.094a5 5 0 0 1 3.56 3.488zm-15.163 3.837-18.297-4.738a61.602 61.602 0 0 0-30.806.001l-18.29 4.737c9.673 7.264 21.362 11.186 33.697 11.186s24.022-3.923 33.696-11.186zm-95.548-21.165a66.049 66.049 0 0 1-4.491-23.992c0-36.581 29.761-66.343 66.343-66.343 36.581 0 66.343 29.762 66.343 66.343a66.057 66.057 0 0 1-4.491 23.992 5.002 5.002 0 0 1-5.915 3.03l-40.538-10.5a61.61 61.61 0 0 0-30.805.002l-40.53 10.498a4.999 4.999 0 0 1-5.916-3.03zm5.509-23.993c0 5.516.797 10.941 2.373 16.184l36.056-9.339c.47-.122.942-.23 1.414-.342v-19.371a.112.112 0 0 0-.112-.112h-10.115a5 5 0 1 1 0-10h10.115c5.576 0 10.112 4.536 10.112 10.112v17.734a71.637 71.637 0 0 1 13 0v-17.734c0-5.576 4.536-10.112 10.112-10.112h10.114a5 5 0 0 1 5 5 5 5 0 0 1-5 5h-10.114a.112.112 0 0 0-.112.112v19.371c.469.111.939.219 1.406.34l36.063 9.341a56.077 56.077 0 0 0 2.373-16.184c0-31.067-25.275-56.343-56.343-56.343s-56.342 25.276-56.342 56.343zM250 282.468a5 5 0 0 0-5 5v15.25a20.028 20.028 0 0 1-6.908 15.137 20.04 20.04 0 0 1-13.129 4.9h-11.2a5 5 0 1 0 0 10h11.2c7.23 0 14.22-2.608 19.682-7.346.122-.106.236-.218.355-.326v33.3h-10.891a5 5 0 1 0 0 10H245v27.964a5 5 0 1 0 10 0v-27.964h10.892c2.762 0 5-2.238 5-5s-2.238-5-5-5H255v-33.3c.12.107.234.22.355.326a30.04 30.04 0 0 0 19.682 7.346h11.199c2.762 0 5-2.238 5-5s-2.238-5-5-5h-11.199A20.039 20.039 0 0 1 255 302.718v-15.25a5 5 0 0 0-5-5z" style="fill:#1c1d21"/></svg>