<svg xmlns="http://www.w3.org/2000/svg" viewBox="0 0 256 256" xml:space="preserve"><circle fill="#F9D0B4" cx="202.132" cy="36.837" r="20.991"/><path fill="#F5C84C" d="m180.015 59.258-34.087-14.101a3.7 3.7 0 0 0-4.909 2.202l-7.57 21.725a3.7 3.7 0 0 0 2.033 4.617l11.575 4.976a1.832 1.832 0 0 1 .813 2.679l-24.31 31.585c-1.575 2.429-.801 5.575 1.694 7.044 5.497 3.236 17.505 8.552 26.362 8.801 2.749.077 5.346-1.259 6.837-3.57l28.549-45.336c4.685-6.876.847-17.456-6.987-20.622zM124.363 144.629c-7.354-5.202-9.271-15.531-4.275-23.025l1.242-1.863-28.171 24.587a3.673 3.673 0 0 0-.445 5.072l16.473 20.449a3.674 3.674 0 0 0 5.276.463l20.686-18.055-10.786-7.628z"/><path fill="#F5C84C" d="m176.896 140.649-19.706-13.938a7.893 7.893 0 0 1-5.574 2.075c-8.858-.249-20.866-5.565-26.362-8.801a5.037 5.037 0 0 1-2.237-2.773l-2.929 4.393c-4.996 7.494-3.078 17.822 4.275 23.025l29.827 21.097a3.674 3.674 0 0 0 4.761-.444l18.464-19.079a3.677 3.677 0 0 0-.519-5.555z"/><path fill="#FCA265" d="m202.135 97.076-13.102-24.294c.045 2.501-.585 4.976-2.03 7.098l-17.123 27.19 4.808 9.207a4.027 4.027 0 0 0 6.002 1.344l20.334-15.426a4.025 4.025 0 0 0 1.111-5.119z"/><path fill="#FC657E" d="M202.931 240.032c-4.188-1.071-9.201-3.375-12.789-6.468l-7.895-6.805a7.167 7.167 0 0 0-6.977-1.36l-8.767 2.966c-3.17 1.072-6.642-.56-7.792-3.702-.372-1.017-.608-2.005-.817-2.753-.501-1.795-2.808-2.331-4.05-.887l-7.955 15.29c-.872 2.519.582 5.017 3.12 5.581l38.228 8.496c10.762 2.392 15.617-2.295 17.269-4.549 1.561-2.133.771-5.209-1.575-5.809zM43.836 130.504l-12.149-12.226c-2.135-1.597-4.956-.97-6.265 1.276L5.709 153.392c-5.55 9.526-2.561 15.576-.915 17.835 1.556 2.135 4.727 2.318 6.012.265 2.293-3.664 6.012-7.74 10.049-10.218l8.883-5.453a7.17 7.17 0 0 0 3.417-6.233l-.161-9.254c-.058-3.346 2.552-6.157 5.896-6.298 1.082-.046 2.095.03 2.871.058 1.861.067 3.073-1.968 2.075-3.59z"/><path fill="#F9D0B4" d="m186.007 151.592-8.248-5.834c-.107.152-.21.306-.344.444l-18.068 18.671 4.811 3.403-8.513 51.929c.986.008 1.947.621 2.25 1.704.203.727.432 1.681.786 2.668 1.133 3.154 4.65 4.861 7.824 3.787l8.765-2.965 15.8-59.806c1.496-5.668-.873-11.037-5.063-14.001zM109.187 169.85l-16.382-20.337-1.843 1.609-46.795-19.577c.117 1.335-.93 2.602-2.406 2.548-.776-.028-1.789-.104-2.871-.058-3.343.14-5.954 2.952-5.896 6.298l.161 9.254L88.37 178.48a13.122 13.122 0 0 0 13.69-2.219l7.228-6.309c-.032-.037-.07-.064-.101-.102zM243.042 109.519l-42.384-4.213-1.059-2.029-18.755 14.228 2.142 4.102a11.603 11.603 0 0 0 9.14 6.176l48.622 4.833c.39.039.778.058 1.162.058 5.893 0 10.94-4.471 11.534-10.459.632-6.377-4.024-12.062-10.402-12.696zM133.858 44.98a11.699 11.699 0 0 0-11.126 1.18L82.21 74.14c-5.315 3.67-6.649 10.955-2.979 16.271a11.683 11.683 0 0 0 9.635 5.051c2.291 0 4.607-.672 6.635-2.072l35.281-24.361 2.483 1.03c.021-.326.071-.653.183-.975l7.39-21.209-6.98-2.895z"/><path fill="#FCA265" d="M145.927 45.157a3.7 3.7 0 0 0-4.909 2.202l-7.57 21.725a3.7 3.7 0 0 0 2.033 4.617l11.575 4.976a1.823 1.823 0 0 1 1.097 1.758l6.704-2.743a38.893 38.893 0 0 0 19.271-17.108l1.699-3.059-29.9-12.368zM135.613 152.586l18.578 13.14a3.674 3.674 0 0 0 4.761-.444l15.635-16.156c-16.198 7.131-33.798 4.484-38.974 3.46zM107.092 132.168l-13.933 12.161a3.673 3.673 0 0 0-.445 5.072l11.911 14.786c-2.405-14.136.994-27.286 2.467-32.019z"/><path fill="#DAE6F1" d="M44.166 131.545c.117 1.335-.93 2.602-2.406 2.548-.776-.028-1.789-.104-2.871-.058-3.343.14-5.954 2.952-5.896 6.298l.161 9.254 8.833 4.622 9.503-19.599-7.324-3.065zM157.035 211.718l-1.391 8.487c.986.008 1.947.621 2.25 1.704.203.727.432 1.681.786 2.668 1.133 3.154 4.65 4.861 7.824 3.787l8.765-2.965 2.487-9.415-20.721-4.266z"/><path fill="#F5C84C" d="M140.8 205.299c-4.5-.8-8-4.3-8.9-8.7 0-.2-.4-.2-.4 0-.9 4.4-4.4 7.9-8.9 8.7-.2 0-.2.3 0 .4 4.5.8 8 4.3 8.9 8.7 0 .2.4.2.4 0 .9-4.4 4.4-7.9 8.9-8.7.2-.1.2-.4 0-.4z"/><path fill="#FC657E" d="M218.236 161.805c-3.232-.575-5.746-3.088-6.392-6.249 0-.144-.287-.144-.287 0-.646 3.16-3.16 5.674-6.392 6.249-.144 0-.144.215 0 .287 3.232.575 5.746 3.088 6.392 6.249 0 .144.287.144.287 0 .646-3.16 3.16-5.674 6.392-6.249.144-.071.144-.287 0-.287z"/><path fill="#70D6F9" d="M159.2 16.349h-2.3v-2.3c0-1.7-1.4-3.2-3.2-3.2s-3.2 1.4-3.2 3.2v2.3h-2.3c-1.7 0-3.2 1.4-3.2 3.2 0 1.8 1.4 3.2 3.2 3.2h2.3v2.3c0 1.7 1.4 3.2 3.2 3.2s3.2-1.4 3.2-3.2v-2.3h2.3c1.7 0 3.2-1.4 3.2-3.2 0-1.8-1.4-3.2-3.2-3.2zM125.8 226.949a3.4 3.4 0 1 0 0 6.8 3.4 3.4 0 0 0 0-6.8z"/><path fill="#87D147" d="M176.8 2.449a3.4 3.4 0 1 0 0 6.8 3.4 3.4 0 0 0 0-6.8z"/><path d="M202.132 13.346c-12.953 0-23.491 10.538-23.491 23.491s10.538 23.491 23.491 23.491 23.491-10.538 23.491-23.491-10.538-23.491-23.491-23.491zm0 41.983c-10.196 0-18.491-8.295-18.491-18.491s8.295-18.491 18.491-18.491 18.491 8.295 18.491 18.491-8.295 18.491-18.491 18.491zM190.787 68.041c-1.541-5.082-5.213-9.229-9.826-11.096l-34.077-14.097a6.223 6.223 0 0 0-4.908.072 6.227 6.227 0 0 0-3.318 3.617l-7.57 21.726c-1.065 3.059.431 6.457 3.407 7.736l10.778 4.633-23.693 30.785c-.041.053-.08.108-.116.165-1.129 1.741-1.492 3.796-1.022 5.788.474 2.01 1.733 3.704 3.545 4.771 6.002 3.534 18.295 8.886 27.56 9.146.097.003.193.004.29.004 3.511 0 6.831-1.79 8.733-4.741l28.5-45.26c2.52-3.704 3.146-8.533 1.717-13.249zm-5.901 10.507-28.535 45.313c-1.013 1.573-2.748 2.489-4.665 2.426-8.262-.232-19.82-5.311-25.165-8.457-.625-.369-1.057-.94-1.215-1.61a2.455 2.455 0 0 1 .306-1.847l24.238-31.492c.042-.054.08-.108.117-.165.696-1.073.882-2.391.51-3.614s-1.258-2.215-2.434-2.721l-11.575-4.976a1.206 1.206 0 0 1-.66-1.498l7.57-21.725c.148-.425.466-.622.642-.701.176-.079.532-.187.95-.014l34.087 14.101.019.008c3.228 1.305 5.816 4.263 6.923 7.915.992 3.262.603 6.536-1.113 9.057z"/><path d="M136.357 151.202a2.499 2.499 0 0 0-3.527-.239l-20.012 17.466a1.172 1.172 0 0 1-1.686-.148l-16.473-20.449a1.17 1.17 0 0 1 .143-1.621l27.778-24.244a2.5 2.5 0 1 0-3.288-3.766l-27.777 24.243a6.157 6.157 0 0 0-.749 8.524l16.473 20.45a6.123 6.123 0 0 0 4.269 2.276 6.11 6.11 0 0 0 4.598-1.499l20.012-17.466a2.499 2.499 0 0 0 .239-3.527z"/><path d="M180.921 143.074a6.163 6.163 0 0 0-2.581-4.466l-19.189-13.572a2.5 2.5 0 0 0-2.888 4.082l19.189 13.572c.383.271.472.648.49.849.019.201.001.588-.324.925l-18.463 19.079a1.167 1.167 0 0 1-1.521.142l-29.827-21.097c-6.259-4.428-7.891-13.219-3.639-19.597l2.654-3.981a2.5 2.5 0 1 0-4.16-2.774l-2.654 3.981c-5.74 8.609-3.536 20.476 4.912 26.452l29.826 21.096a6.16 6.16 0 0 0 3.571 1.145 6.153 6.153 0 0 0 4.431-1.891l18.463-19.08a6.163 6.163 0 0 0 1.71-4.865zM204.335 95.89l-12.878-23.877a2.5 2.5 0 1 0-4.401 2.373l12.878 23.877a1.518 1.518 0 0 1-.421 1.94l-20.335 15.426a1.5 1.5 0 0 1-1.253.273 1.51 1.51 0 0 1-1.021-.783l-4.372-8.371a2.5 2.5 0 1 0-4.432 2.314l4.371 8.37a6.51 6.51 0 0 0 4.361 3.348 6.503 6.503 0 0 0 5.368-1.169l20.334-15.426a6.487 6.487 0 0 0 1.801-8.295zM207.444 241.218c-.655-1.828-2.075-3.143-3.894-3.608-4.285-1.096-8.798-3.372-11.777-5.939l-7.896-6.806a9.708 9.708 0 0 0-9.41-1.834l-8.767 2.966c-1.882.639-3.966-.346-4.643-2.193-.25-.682-.437-1.381-.603-1.998l-.155-.568a4.847 4.847 0 0 0-8.353-1.845 2.553 2.553 0 0 0-.322.476l-7.955 15.29c-.056.108-.104.22-.145.335-.653 1.885-.494 3.853.449 5.54.933 1.67 2.57 2.873 4.491 3.3l38.228 8.496c2.279.506 4.33.723 6.172.723 8.068 0 12.126-4.147 13.656-6.235 1.309-1.785 1.653-4.065.924-6.1zm-4.955 3.144c-1.299 1.772-5.333 5.669-14.71 3.586l-38.228-8.496c-.539-.12-.969-.424-1.211-.857-.156-.279-.297-.728-.134-1.322l7.404-14.231.016.058c.183.682.411 1.53.737 2.421 1.6 4.373 6.507 6.711 10.94 5.211l8.767-2.966a4.685 4.685 0 0 1 4.543.886l7.896 6.806c3.581 3.086 8.741 5.701 13.802 6.996.072.019.291.075.425.451.125.347.135.936-.247 1.457zM45.965 129.194a2.544 2.544 0 0 0-.355-.452l-12.15-12.225a2.525 2.525 0 0 0-.276-.24c-1.598-1.195-3.521-1.642-5.415-1.256-1.875.381-3.518 1.575-4.508 3.276L3.549 152.133c-6.321 10.848-2.648 17.996-.776 20.566 1.257 1.724 3.226 2.735 5.304 2.735.075 0 .151-.001.227-.004 1.94-.069 3.625-1.021 4.621-2.613 2.347-3.749 5.887-7.356 9.238-9.414l8.883-5.453a9.709 9.709 0 0 0 4.608-8.408l-.161-9.253c-.034-1.989 1.536-3.674 3.501-3.757.726-.03 1.452.004 2.089.034l.585.026c1.785.063 3.461-.855 4.363-2.403s.878-3.462-.066-4.995zm-4.646 2.377c-.707-.034-1.585-.075-2.535-.035-4.653.195-8.372 4.161-8.291 8.839l.161 9.253a4.688 4.688 0 0 1-2.226 4.06l-8.883 5.453c-4.028 2.473-8.088 6.594-10.86 11.022-.04.063-.159.254-.559.268a1.622 1.622 0 0 1-1.313-.679c-1.294-1.776-3.782-6.803 1.055-15.104l19.713-33.836c.278-.477.698-.794 1.184-.893.094-.02.203-.033.323-.033.278 0 .616.071.977.306l11.308 11.379h-.054z"/><path d="m165.601 166.235-4.336-3.067a2.5 2.5 0 0 0-2.888 4.082l3.06 2.165-8.174 49.858a2.501 2.501 0 0 0 2.47 2.905 2.501 2.501 0 0 0 2.464-2.096l8.427-51.401a2.504 2.504 0 0 0-1.023-2.446zM187.451 149.551l-7.56-5.347a2.5 2.5 0 0 0-2.888 4.082l7.56 5.347c3.624 2.563 5.228 7.006 4.088 11.321l-15.594 59.025a2.5 2.5 0 1 0 4.834 1.277l15.594-59.025c1.68-6.353-.69-12.9-6.034-16.68zM110.65 168.763a2.499 2.499 0 0 0-3.527-.239l-6.707 5.854c-3 2.619-7.302 3.333-10.987 1.834L34.924 147.69a2.5 2.5 0 0 0-2.318 4.43l54.606 28.575c.063.033.128.064.194.091a15.507 15.507 0 0 0 5.989 1.195c3.729 0 7.427-1.321 10.309-3.837l6.707-5.854a2.499 2.499 0 0 0 .239-3.527zM94.285 148.22a2.499 2.499 0 0 0-3.527-.239l-.268.233-44.774-18.731a2.5 2.5 0 1 0-1.93 4.612l46.21 19.332a2.5 2.5 0 0 0 2.609-.423l1.44-1.257a2.5 2.5 0 0 0 .24-3.527zM252.805 112.129a14.014 14.014 0 0 0-9.517-5.098l-41.04-4.08a2.5 2.5 0 0 0-4.424 2.331l.616 1.18a2.5 2.5 0 0 0 1.969 1.331l42.384 4.213a9.041 9.041 0 0 1 6.143 3.291 9.048 9.048 0 0 1 2.017 6.671 9.09 9.09 0 0 1-9.961 8.16l-48.622-4.833a9.073 9.073 0 0 1-7.17-4.846l-1.654-3.167a2.5 2.5 0 1 0-4.432 2.314l1.653 3.167a14.061 14.061 0 0 0 11.109 7.507l48.623 4.833c.472.047.945.07 1.408.07a14.052 14.052 0 0 0 14.022-12.711 14.01 14.01 0 0 0-3.124-10.333zM141.155 45.3l-6.34-2.629a14.145 14.145 0 0 0-13.503 1.432l-40.523 27.98c-6.441 4.447-8.063 13.306-3.616 19.749a14.208 14.208 0 0 0 11.693 6.131c2.887 0 5.672-.87 8.056-2.515l34.161-23.587.542.225a2.5 2.5 0 1 0 1.915-4.619l-1.8-.746a2.504 2.504 0 0 0-2.378.252l-35.281 24.36a9.14 9.14 0 0 1-5.215 1.629 9.21 9.21 0 0 1-7.579-3.972c-2.881-4.173-1.83-9.913 2.342-12.793l40.523-27.98a9.164 9.164 0 0 1 8.748-.928l6.339 2.629a2.502 2.502 0 0 0 3.267-1.352 2.497 2.497 0 0 0-1.351-3.266zM176.589 56.157a2.499 2.499 0 0 0-3.399.971l-1.247 2.243a36.515 36.515 0 0 1-18.032 16.008l-6.103 2.497a2.5 2.5 0 1 0 1.894 4.628l6.103-2.497a41.537 41.537 0 0 0 20.509-18.208l1.246-2.242a2.501 2.501 0 0 0-.971-3.4z"/><path d="M176.655 148.228a2.5 2.5 0 0 0-3.289-1.297c-15.408 6.694-32.287 4.17-37.092 3.237a2.503 2.503 0 0 0-2.931 1.978 2.502 2.502 0 0 0 1.978 2.931c2.443.474 7.792 1.33 14.523 1.33 7.495 0 16.702-1.061 25.515-4.889a2.502 2.502 0 0 0 1.296-3.29zM107.722 130.099a2.5 2.5 0 0 0-3.12 1.662c-1.524 4.998-4.821 18.16-2.519 32.384a2.5 2.5 0 0 0 4.935-.799c-2.135-13.19.943-25.463 2.365-30.127a2.498 2.498 0 0 0-1.661-3.12zM52.291 132.957a2.5 2.5 0 0 0-3.34 1.159l-8.959 18.479a2.5 2.5 0 1 0 4.499 2.181l8.959-18.479a2.5 2.5 0 0 0-1.159-3.34zM177.406 213.36l-19.031-3.918a2.5 2.5 0 0 0-1.009 4.897l19.031 3.918a2.5 2.5 0 0 0 1.009-4.897z"/></svg>