<svg version="1.1" id="Layer_1" xmlns="http://www.w3.org/2000/svg" x="0" y="0" viewBox="0 0 500 500"
    style="enable-background:new 0 0 500 500" xml:space="preserve"><style>.st0{fill:#fddf7f}</style><path class="st0" d="M376.934 456.863 306.46 322.868V394.5l38.312 69.907-45.295-13.417a50.6 50.6 0 0 0 .398-6.229c0-16.837-8.291-31.728-21.004-40.844v-21.409c0-16.146-13.089-29.236-29.236-29.236-16.146 0-29.236 13.089-29.236 29.236v21.408c-12.713 9.116-21.003 24.007-21.003 40.844 0 2.112.146 4.189.398 6.232v-.002l-45.292 13.416 38.312-69.907v-71.632L122.34 456.862c-4.025 5.778-5.16 12.314-4.064 18.347 2.455 13.509 15.929 22.092 29.362 19.245l63.429-17.507-.002-.002C220.282 487.977 234.137 495 249.636 495c15.498 0 29.353-7.021 38.568-18.053l63.432 17.508c13.432 2.847 26.907-5.736 29.362-19.245 1.096-6.033-.039-12.569-4.064-18.347z"/><path d="M220.4 394.521v-12.013c0-16.147 13.089-29.236 29.236-29.236s29.236 13.089 29.236 29.236v12.013h27.589V268.08h-113.65v126.441H220.4z" style="fill:#83e1e5"/><path d="M308.495 155.864 288.87 17.015C287.894 10.108 282.323 5 275.766 5c-7.211 0-13.099 6.142-13.249 13.822l-3.747 191.509h-18.275l-3.747-191.509C236.598 11.142 230.71 5 223.499 5c-6.557 0-12.128 5.108-13.104 12.015l-19.625 138.85a270.99 270.99 0 0 0 2.072 88.345v23.871h113.581V244.21a270.97 270.97 0 0 0 2.072-88.346z" style="fill:#aab1ba"/><path class="st0" d="m237.065 34.988-.316-16.166C236.598 11.142 230.711 5 223.499 5c-6.557 0-12.128 5.108-13.104 12.015l-2.54 17.973h29.21zM291.411 34.988l-2.54-17.973C287.894 10.108 282.323 5 275.766 5c-7.211 0-13.099 6.142-13.249 13.822l-.316 16.166h29.21z"/><path d="M139.368 256.145a5 5 0 0 1 5-5h5.975v-5.975c0-2.762 2.238-5 5-5s5 2.238 5 5v5.975h5.975c2.762 0 5 2.238 5 5s-2.238 5-5 5h-5.975v5.975c0 2.762-2.238 5-5 5s-5-2.238-5-5v-5.975h-5.975a5 5 0 0 1-5-5zm193.583 5h5.975v5.975c0 2.762 2.238 5 5 5s5-2.238 5-5v-5.975h5.975c2.762 0 5-2.238 5-5s-2.238-5-5-5h-5.975v-5.975c0-2.762-2.238-5-5-5s-5 2.238-5 5v5.975h-5.975c-2.762 0-5 2.238-5 5s2.238 5 5 5zM199.585 93.485a5 5 0 0 0 5.651-4.249l.248-1.752a4.998 4.998 0 0 0-4.249-5.651 4.989 4.989 0 0 0-5.651 4.249l-.248 1.752a4.998 4.998 0 0 0 4.249 5.651zM77.583 489.955h-3.766c-2.762 0-5 2.238-5 5s2.238 5 5 5h3.766c2.762 0 5-2.238 5-5s-2.238-5-5-5zm334.865 5a5 5 0 0 1-5 5h-48.509c-.111 0-.216-.025-.326-.033a29.87 29.87 0 0 1-1.845.068 29.74 29.74 0 0 1-6.169-.644 4.846 4.846 0 0 1-.294-.072l-44.441-12.267a4.998 4.998 0 0 1-3.489-6.149 4.996 4.996 0 0 1 6.149-3.489l44.287 12.224a20.102 20.102 0 0 0 15.146-2.983c4.324-2.902 7.208-7.268 8.122-12.294.922-5.08-.23-10.265-3.247-14.596a4.708 4.708 0 0 1-.322-.53l-61.049-116.074v50.104l37.696 68.783a4.999 4.999 0 0 1-5.805 7.197l-29.316-8.684a5 5 0 0 1 2.84-9.588l17.678 5.236-31.043-56.645h-22.234c14.254 10 23.599 26.544 23.599 45.24 0 30.459-24.78 55.239-55.239 55.239s-55.239-24.78-55.239-55.239c0-18.696 9.344-35.241 23.599-45.24h-22.23l-31.044 56.645 17.91-5.305a5 5 0 0 1 2.84 9.588l-29.548 8.752a4.999 4.999 0 0 1-5.805-7.197l37.693-68.778V343.12l-61.046 116.069c-.096.184-.203.36-.322.53-3.017 4.332-4.17 9.516-3.247 14.596.913 5.026 3.797 9.392 8.12 12.294a20.1 20.1 0 0 0 15.146 2.983l43.388-11.975a5.002 5.002 0 0 1 6.149 3.489 4.998 4.998 0 0 1-3.489 6.149l-43.541 12.018a4.846 4.846 0 0 1-.294.072 29.733 29.733 0 0 1-6.169.644c-.439 0-.876-.029-1.314-.048-.045.001-.086.013-.131.013H92.552c-2.762 0-5-2.238-5-5s2.238-5 5-5h27.522a28.514 28.514 0 0 1-6.716-13.852c-1.384-7.612.284-15.353 4.696-21.832l69.758-132.632V268.08c0-.103.024-.199.03-.3v-23.13a275.173 275.173 0 0 1-2.022-89.486l7.476-52.895a5.005 5.005 0 0 1 5.65-4.252 5.002 5.002 0 0 1 4.252 5.65l-7.476 52.896a265.173 265.173 0 0 0 1.304 82.646H302.24a265.197 265.197 0 0 0 1.304-82.645L287.067 39.988h-19.962l-3.25 166.105c4.071 1.628 6.971 5.712 6.971 10.494v6.916c0 2.762-2.238 5-5 5s-5-2.238-5-5v-6.916c0-.74-.461-1.257-.874-1.257h-20.638c-.413 0-.874.517-.874 1.257v6.916c0 2.762-2.238 5-5 5s-5-2.238-5-5v-6.916c0-4.782 2.9-8.866 6.971-10.494l-3.25-166.105h-19.963l-3.95 27.951a5 5 0 1 1-9.902-1.4l7.099-50.225C206.759 7.014 214.521 0 223.499 0c9.859 0 18.046 8.399 18.248 18.725l3.651 186.606h8.469l3.651-186.606C257.72 8.4 265.905 0 275.767 0c8.979 0 16.74 7.014 18.055 16.315l19.625 138.849a275.202 275.202 0 0 1-2.022 89.486v23.062c.009.124.037.242.037.368v53.554l69.761 132.638c4.411 6.478 6.079 14.218 4.696 21.832a28.524 28.524 0 0 1-6.717 13.852h28.247a4.998 4.998 0 0 1 4.999 4.999zM231.966 29.988l-.217-11.068c-.097-4.918-3.797-8.92-8.25-8.92-4.093 0-7.521 3.244-8.152 7.714l-1.735 12.274h18.354zm53.688 0-1.735-12.273c-.631-4.471-4.06-7.715-8.152-7.715-4.453 0-8.154 4.001-8.25 8.92l-.217 11.068h18.354zM197.842 263.08h103.582v-13.871H197.842v13.871zm51.794 136.441c-24.945 0-45.239 20.295-45.239 45.24S224.69 490 249.636 490s45.239-20.294 45.239-45.239-20.294-45.24-45.239-45.24zm24.302-4.353c-.028-.214-.065-.426-.065-.647v-12.013c0-13.363-10.872-24.235-24.236-24.235-13.363 0-24.235 10.872-24.235 24.235v12.013c0 .222-.037.433-.065.647a54.901 54.901 0 0 1 24.301-5.647 54.893 54.893 0 0 1 24.3 5.647zm9.934-12.66v7.013h17.589V273.08H197.812v49.752c0 .012.003.023.003.035v66.653H215.4v-7.013c0-18.878 15.358-34.235 34.235-34.235 18.879 0 34.237 15.358 34.237 34.236zm142.311 107.447h-3.766c-2.762 0-5 2.238-5 5s2.238 5 5 5h3.766a5 5 0 1 0 0-10z" style="fill:#1c1d21"/></svg>